<?xml version="1.0" standalone="no"?>
<!DOCTYPE svg PUBLIC "-//W3C//DTD SVG 20010904//EN"
 "http://www.w3.org/TR/2001/REC-SVG-20010904/DTD/svg10.dtd">
<svg version="1.0" xmlns="http://www.w3.org/2000/svg"
 width="1024.000000pt" height="1024.000000pt" viewBox="0 0 1024.000000 1024.000000"
 preserveAspectRatio="xMidYMid meet">

<g transform="translate(0.000000,1024.000000) scale(0.100000,-0.100000)"
fill="#000000" stroke="none">
<path d="M0 5120 l0 -5120 5120 0 5120 0 0 5120 0 5120 -5120 0 -5120 0 0
-5120z m5710 3886 c281 -43 484 -106 755 -234 178 -83 297 -152 426 -245 573
-413 950 -970 1103 -1632 78 -333 95 -582 61 -870 -16 -136 -66 -384 -104
-515 -120 -415 -384 -845 -723 -1175 -158 -155 -216 -203 -352 -295 -118 -78
-386 -213 -590 -295 -185 -74 -533 -157 -673 -159 -33 -1 -59 -4 -56 -9 5 -9
-527 -3 -582 7 -22 4 -65 11 -95 16 -217 35 -264 45 -442 101 -120 37 -164 56
-100 44 26 -5 26 -5 4 5 -13 5 -28 7 -34 4 -11 -7 -68 15 -68 27 0 5 -7 5 -17
2 -9 -4 -14 -2 -11 3 3 5 -8 19 -23 32 -16 13 -29 19 -29 12 0 -6 7 -13 15
-16 8 -4 15 -10 15 -14 0 -9 -149 52 -150 62 0 8 48 -5 77 -21 11 -5 23 -7 27
-4 3 3 -29 24 -71 46 -58 30 -89 40 -122 39 -30 0 -55 6 -72 19 -15 10 -31 19
-36 19 -4 0 -17 8 -28 16 -19 15 -19 15 7 9 15 -4 35 -2 45 4 16 9 16 10 -5
11 -13 0 -20 4 -17 10 3 6 0 10 -7 10 -7 0 -40 14 -72 30 -61 31 -80 33 -52 5
41 -41 -1 -23 -54 24 -19 17 -27 28 -18 25 26 -9 22 9 -9 39 -16 14 -38 40
-51 57 -13 16 -32 30 -42 30 -9 0 -23 7 -30 15 -7 8 -19 15 -27 15 -8 0 -11 5
-8 10 3 6 2 10 -3 10 -13 0 -82 66 -82 78 0 5 -8 9 -17 8 -11 0 -17 6 -17 17
1 9 -1 17 -5 18 -3 0 -17 2 -30 5 -23 4 -23 4 -7 -21 9 -13 16 -28 16 -32 0
-9 -105 94 -130 129 -20 26 -20 26 0 21 36 -10 19 21 -44 77 -23 21 -29 22
-37 10 -7 -11 -8 -9 -5 10 2 19 -6 33 -32 57 -20 17 -39 30 -44 27 -8 -5 -96
118 -139 194 -15 26 -56 99 -92 163 -78 139 -110 212 -172 384 -63 176 -70
201 -99 340 -40 198 -50 299 -50 525 -1 221 3 264 50 492 88 433 291 855 589
1227 216 271 576 562 884 716 333 166 691 273 1024 305 171 16 483 5 677 -24z
m-2629 -4369 l23 -32 -23 20 c-13 11 -27 28 -33 39 -16 29 7 11 33 -27z m73
-93 c3 -8 2 -12 -4 -9 -6 3 -10 10 -10 16 0 14 7 11 14 -7z m216 -207 c0 -9
16 -25 65 -66 11 -9 27 -25 35 -35 14 -18 14 -19 -5 -8 -34 18 -127 119 -111
119 9 0 16 -5 16 -10z m78 -422 c3 -2 2 -11 -1 -19 -10 -26 -127 -31 -701 -29
-484 1 -560 3 -574 16 -41 42 -36 42 634 39 351 -2 640 -5 642 -7z m4919 -11
c10 -31 -25 -33 -629 -36 -501 -3 -608 -1 -621 11 -22 17 -22 39 0 43 9 2 293
1 631 -2 435 -4 616 -8 619 -16z m-4761 -181 c17 -6 18 -29 3 -39 -7 -4 -333
-7 -726 -8 l-714 -1 -6 24 c-3 14 0 27 8 33 15 10 1408 2 1435 -9z m4735 7
c22 -12 26 -45 6 -53 -27 -10 -1487 9 -1498 20 -12 12 5 28 36 36 42 10 1436
7 1456 -3z m-5826 -616 c136 -274 235 -480 280 -582 46 -105 72 -152 84 -152
10 0 52 80 92 175 20 49 67 155 104 235 37 80 80 177 95 215 15 39 52 112 81
163 l53 92 162 0 c89 0 169 -3 178 -6 9 -4 16 -18 16 -34 0 -24 -5 -29 -37
-35 -54 -10 -107 -42 -129 -78 -18 -30 -19 -57 -19 -477 0 -394 2 -448 16
-475 25 -44 53 -66 111 -86 47 -16 53 -21 56 -48 l3 -31 -270 0 -271 0 0 29
c0 25 7 32 58 57 93 47 91 39 92 449 1 193 1 384 0 425 l-1 75 -28 -75 c-16
-41 -54 -130 -85 -197 -31 -67 -56 -125 -56 -128 0 -19 -283 -605 -292 -605
-9 0 -96 181 -138 285 -15 39 -67 156 -115 260 -48 105 -107 236 -131 293 -24
57 -49 111 -55 120 -17 28 -4 -787 14 -830 18 -42 43 -64 93 -81 33 -12 39
-19 42 -46 l3 -31 -213 2 -213 3 0 29 c0 25 8 33 49 56 69 37 103 83 117 154
7 38 9 191 6 440 -4 420 -6 433 -66 476 -18 12 -49 24 -70 27 -34 5 -40 10
-45 35 -3 17 -3 34 0 39 3 5 82 8 182 7 l177 -3 70 -141z m2450 135 c8 -9 28
-181 29 -254 l1 -60 -39 0 c-39 0 -39 0 -63 65 -14 36 -36 80 -49 98 -45 59
-63 63 -270 60 l-186 -3 -2 -239 -1 -238 96 4 c140 7 175 35 220 172 15 49 25
66 39 66 41 0 45 -22 33 -188 -6 -87 -9 -195 -6 -241 6 -90 1 -101 -47 -101
-24 0 -28 7 -47 73 -14 45 -31 81 -48 97 -24 22 -33 24 -133 25 l-107 0 -2
-212 c-1 -204 0 -214 21 -245 l22 -33 184 0 c157 0 190 3 217 18 74 40 147
144 161 231 7 40 9 41 50 44 29 2 42 -1 42 -10 0 -7 -10 -97 -22 -200 l-22
-186 -503 0 -503 0 0 28 c0 24 9 33 62 62 104 57 97 24 102 483 6 494 4 525
-39 570 -20 22 -48 38 -78 46 -42 10 -47 14 -47 40 l0 28 118 4 c197 5 810 2
817 -4z m779 5 c22 -8 173 -183 341 -394 275 -346 407 -500 428 -500 4 0 7
163 5 363 -3 361 -3 362 -26 395 -27 37 -60 56 -113 66 -26 5 -38 13 -43 29
-3 12 -2 25 2 28 4 4 109 9 235 12 l227 6 0 -39 c0 -36 -2 -40 -25 -40 -40 0
-88 -24 -117 -58 l-26 -31 -6 -253 c-3 -139 -9 -388 -12 -553 -3 -165 -8 -303
-11 -307 -10 -18 -40 -5 -65 30 -28 37 -79 95 -259 294 -52 58 -117 134 -143
169 -27 35 -81 100 -120 144 -40 44 -87 96 -103 115 -28 32 -150 191 -181 236
-10 16 -12 -53 -9 -372 4 -348 6 -394 22 -428 21 -44 62 -77 128 -101 40 -15
47 -22 47 -45 l0 -28 -230 1 c-235 2 -248 4 -234 41 3 7 28 24 55 37 76 35
116 85 125 156 9 77 -3 787 -15 837 -12 51 -54 92 -116 114 -42 15 -50 22 -50
42 0 24 3 25 85 31 135 9 187 9 204 3z m1874 -34 c-3 -34 -5 -35 -52 -42 -33
-5 -58 -15 -75 -33 l-26 -25 -3 -337 c-4 -475 6 -535 107 -626 74 -66 115 -82
216 -82 82 0 97 3 158 33 84 41 131 88 166 161 l26 56 3 388 3 389 -38 37
c-27 27 -50 40 -81 45 -44 7 -60 24 -45 50 7 13 43 16 218 18 l210 3 0 -35 c0
-32 -3 -35 -40 -42 -22 -5 -52 -21 -68 -36 -60 -57 -60 -55 -67 -457 -6 -311
-10 -377 -24 -415 -40 -106 -136 -213 -230 -256 -68 -31 -139 -44 -240 -44
-254 0 -435 152 -464 391 -5 41 -7 218 -5 394 l5 320 -24 35 c-24 35 -71 65
-119 75 -19 3 -28 13 -32 32 -3 15 -4 30 -2 33 2 3 121 5 265 5 l261 0 -3 -35z
m-3672 -1665 c81 -62 106 -108 106 -197 0 -76 -34 -136 -105 -183 -89 -59
-157 -55 -245 12 -44 33 -82 118 -82 181 0 92 68 184 156 212 51 16 132 4 170
-25z m578 -99 c56 -71 106 -131 111 -133 6 -2 8 45 5 127 l-5 130 35 0 35 0 0
-217 c0 -199 -2 -218 -17 -221 -22 -4 -57 32 -121 128 -58 86 -115 160 -125
160 -4 0 -6 -66 -4 -146 l3 -145 -33 3 -33 3 -7 170 c-3 94 -9 194 -12 223
l-6 53 36 -3 c34 -3 45 -12 138 -132z m1436 124 c5 0 41 -39 81 -87 39 -49 91
-107 115 -130 l44 -43 -6 118 c-3 64 -7 123 -10 130 -2 8 8 12 30 12 l33 0 8
-194 c6 -184 3 -256 -14 -256 -14 0 -80 78 -140 166 -33 50 -70 99 -81 109
-20 18 -20 17 -20 -123 l0 -142 -35 0 -35 0 0 158 c0 86 -3 188 -7 226 -6 63
-5 69 11 63 10 -4 22 -7 26 -7z m-840 -181 l0 -181 73 2 c101 3 97 5 97 -37
l0 -38 -120 0 -120 0 0 180 c0 99 -3 197 -6 218 l-7 37 42 0 41 0 0 -181z
m490 -37 c0 -120 -2 -221 -5 -224 -3 -3 -16 -3 -30 0 l-24 4 -3 219 -3 219 33
0 32 0 0 -218z m1258 186 c-4 -39 -21 -45 -134 -47 -70 -1 -72 -2 -75 -28 -10
-70 -7 -73 92 -73 l89 0 0 -35 0 -35 -91 0 -91 0 6 -31 c3 -17 6 -42 6 -55 0
-24 1 -24 100 -24 l100 0 0 -40 0 -40 -43 0 c-24 0 -85 3 -134 6 l-91 7 -7
196 c-3 108 -8 203 -11 212 -4 14 14 16 142 18 l145 2 -3 -33z m-3533 -123 c0
-18 -9 -21 -120 -28 -66 -4 -327 -6 -580 -5 l-460 3 -3 22 -3 23 233 3 c128 1
391 2 583 2 343 0 350 0 350 -20z m5025 10 c10 -12 10 -18 0 -30 -11 -13 -85
-15 -554 -15 -297 0 -565 3 -593 6 -47 6 -53 9 -53 30 l0 24 594 0 c515 0 595
-2 606 -15z"/>
<path d="M5045 8906 c-357 -37 -688 -132 -995 -286 -256 -129 -566 -358 -733
-543 -89 -99 -259 -321 -303 -397 -17 -30 -54 -93 -81 -140 -168 -290 -296
-688 -324 -1010 -14 -161 -7 -445 16 -610 31 -229 149 -596 258 -803 172 -329
504 -711 794 -914 217 -151 370 -235 583 -318 350 -138 782 -216 1119 -202
215 8 551 67 735 128 347 116 642 271 881 464 332 267 605 631 755 1005 132
329 196 628 207 960 11 361 -60 704 -226 1090 -65 151 -166 341 -219 410 -15
19 -49 67 -77 106 -201 290 -558 587 -934 778 -364 185 -750 283 -1146 291
-106 2 -234 -2 -310 -9z m615 -110 c243 -33 546 -129 773 -242 121 -61 317
-183 412 -256 139 -108 326 -289 443 -429 259 -310 432 -681 522 -1114 100
-483 42 -983 -173 -1484 -197 -460 -596 -895 -1049 -1144 -328 -181 -670 -292
-1008 -328 -213 -22 -337 -23 -540 -4 -188 18 -270 34 -465 90 -225 65 -316
100 -468 178 -325 166 -610 390 -812 637 -204 250 -280 366 -368 555 -102 222
-184 500 -208 703 -16 148 -7 638 15 757 70 379 240 752 500 1100 71 95 274
300 405 409 52 43 139 107 195 143 56 35 113 73 127 83 45 32 281 147 384 188
220 87 484 154 675 172 130 12 512 4 640 -14z"/>
<path d="M5125 8753 c-197 -10 -496 -73 -691 -143 -140 -51 -393 -176 -516
-256 -216 -140 -472 -361 -578 -499 -21 -27 -66 -86 -100 -130 -127 -167 -286
-464 -350 -655 -131 -396 -157 -773 -84 -1228 3 -18 9 -30 14 -27 4 3 6 -3 3
-13 -12 -48 102 -404 179 -556 166 -331 452 -671 760 -904 478 -361 1202 -559
1788 -487 339 42 597 117 875 254 208 103 322 175 485 306 198 159 369 350
518 579 73 113 197 380 242 525 104 333 159 730 130 944 -63 474 -215 891
-448 1227 -169 244 -415 480 -682 655 -96 62 -337 187 -462 238 -154 64 -429
135 -588 152 -30 3 -71 8 -90 10 -52 6 -335 12 -405 8z m485 -487 c176 -29
427 -104 545 -163 95 -48 256 -147 343 -212 105 -79 344 -315 433 -428 126
-159 260 -442 329 -693 34 -124 61 -293 41 -262 -4 7 -7 -56 -6 -140 1 -84 1
-121 -1 -83 -10 189 -44 390 -98 573 -13 46 -22 91 -20 100 2 9 -5 35 -16 57
-11 22 -18 30 -16 18 7 -38 -4 -26 -30 32 -13 31 -22 66 -19 78 3 14 -3 31
-16 47 -16 19 -19 20 -15 6 12 -35 -19 0 -44 51 -13 26 -36 67 -52 91 -16 23
-26 47 -22 54 4 6 3 8 -3 5 -15 -10 -35 17 -27 37 3 9 1 16 -6 16 -6 0 -8 -6
-5 -12 10 -20 -55 55 -67 77 -10 18 -10 19 5 6 18 -14 20 -12 11 13 -7 19 -31
21 -36 4 -3 -8 -10 -3 -18 12 -7 14 -19 29 -26 33 -8 4 -14 13 -14 18 0 6 5 7
10 4 16 -10 11 8 -10 35 -10 14 -22 21 -27 17 -4 -5 -1 -12 7 -17 8 -5 11 -12
7 -16 -9 -9 -38 16 -31 27 3 5 0 9 -7 9 -16 0 -140 122 -136 134 5 15 -50 69
-62 61 -6 -3 -11 0 -11 7 0 17 -56 51 -70 43 -5 -3 -27 6 -47 20 -21 14 -33
25 -27 25 6 0 23 -9 37 -20 27 -21 37 -25 37 -12 0 17 -99 74 -118 68 -12 -4
-50 10 -108 40 -86 44 -249 114 -267 114 -5 0 -23 6 -40 14 -18 8 -52 20 -76
26 -23 6 -41 14 -38 17 3 2 30 -2 60 -11 62 -18 80 -20 56 -6 -26 15 -205 60
-236 59 -23 -1 -24 -2 -5 -6 32 -6 27 -23 -5 -18 -177 29 -403 40 -543 26
-137 -14 -180 -20 -210 -31 -14 -5 -61 -16 -105 -25 -87 -18 -345 -109 -385
-136 -14 -9 -52 -30 -85 -46 -33 -16 -70 -36 -82 -43 -25 -16 -46 -5 -23 11
13 9 13 10 0 6 -8 -2 -14 -13 -13 -23 1 -10 -4 -22 -11 -26 -14 -8 -104 -73
-185 -135 -34 -25 -47 -30 -54 -21 -6 9 -7 8 -4 -4 6 -18 -17 -43 -31 -34 -6
3 -16 -2 -23 -11 -10 -12 -10 -14 -1 -9 19 11 14 -1 -10 -23 -11 -11 -26 -18
-31 -14 -6 3 -7 1 -3 -5 4 -7 -19 -38 -52 -74 -89 -94 -113 -124 -181 -225
-142 -211 -271 -548 -307 -800 -20 -143 -15 -480 9 -608 43 -226 86 -354 209
-614 62 -130 186 -300 307 -421 122 -122 292 -262 385 -319 67 -40 157 -77
210 -84 l39 -6 -25 27 c-19 20 -28 43 -33 87 -6 45 -10 55 -16 40 -7 -18 -8
-18 -11 5 -1 14 -3 315 -3 670 l0 645 -22 41 c-12 23 -42 57 -65 75 -153 117
-198 216 -184 409 3 47 11 297 16 555 6 259 13 480 15 493 6 26 36 29 59 6 14
-14 16 -71 16 -477 0 -407 2 -465 16 -485 11 -16 24 -22 42 -20 l27 3 8 475
c4 261 10 485 13 498 5 26 30 29 56 5 17 -15 18 -43 18 -468 0 -293 4 -463 11
-483 16 -47 71 -53 83 -9 3 12 6 112 6 223 0 110 3 323 7 472 l6 272 28 0 c15
0 29 -7 33 -16 3 -9 6 -219 6 -467 0 -343 3 -458 13 -477 16 -31 61 -39 75
-13 6 10 11 218 14 490 2 329 7 476 15 484 14 14 49 3 58 -19 8 -19 22 -504
27 -942 l3 -275 -33 -67 c-31 -63 -45 -79 -140 -155 -76 -62 -76 -56 -66 -697
5 -309 9 -652 9 -763 l0 -203 45 -19 c225 -94 691 -150 925 -111 39 6 81 13
95 15 87 12 370 96 456 135 38 17 94 41 124 52 100 38 269 151 429 285 167
141 246 228 353 389 84 128 97 155 163 323 74 192 95 266 124 441 l18 105 8
-78 c4 -43 5 -97 1 -120 -11 -71 -46 -167 -62 -167 -8 0 -14 -8 -14 -17 0 -16
2 -16 10 -3 33 48 -60 -221 -115 -333 -69 -142 -263 -406 -287 -391 -6 4 -8 3
-4 -4 6 -11 -10 -26 -29 -27 -5 0 -9 -8 -7 -16 4 -29 -260 -251 -415 -347 -96
-60 -294 -150 -389 -176 -32 -9 -76 -24 -97 -32 -48 -18 -224 -52 -412 -80
-62 -9 -333 -6 -420 5 -217 28 -397 74 -527 136 -54 25 -141 62 -195 80 -54
19 -94 34 -89 34 9 1 -60 51 -70 51 -3 0 -2 -5 2 -12 4 -7 3 -8 -5 -4 -6 4 -9
11 -6 15 4 7 -59 61 -157 133 -20 15 -40 23 -43 18 -3 -4 3 -11 14 -15 11 -3
25 -13 32 -23 7 -9 10 -14 5 -10 -15 12 -66 -13 -66 -33 0 -10 -7 -19 -15 -19
-8 0 -15 -9 -15 -20 0 -17 -7 -20 -40 -20 -29 0 -40 -4 -40 -15 0 -8 -9 -15
-19 -15 -11 0 -21 -6 -23 -12 -4 -10 -17 -10 -64 0 -33 6 -70 12 -81 12 -11 0
-26 7 -33 15 -7 8 -36 29 -66 46 -29 16 -72 46 -95 65 -33 27 -44 32 -60 24
-13 -7 -19 -7 -19 0 0 5 5 10 10 10 6 0 10 5 10 11 0 6 -8 9 -17 7 -32 -7
-178 174 -150 185 7 3 4 6 -6 6 -11 1 -20 12 -24 32 -4 20 -8 26 -14 18 -5 -9
-10 -5 -14 14 -4 15 -12 27 -19 27 -6 0 -20 14 -29 30 -10 16 -15 30 -12 30 4
0 -1 7 -9 16 -9 8 -16 26 -16 39 0 19 -4 23 -17 18 -15 -6 -16 -4 -5 9 10 13
10 18 1 24 -8 4 -9 3 -5 -4 4 -7 3 -12 -3 -12 -5 0 -12 13 -16 29 -3 16 -13
35 -21 42 -8 6 -14 26 -14 44 0 41 -9 67 -21 59 -5 -3 -7 -10 -4 -15 4 -5 3
-9 0 -9 -10 0 -36 70 -30 80 3 4 0 10 -6 12 -6 2 -12 16 -12 31 -1 15 -6 27
-11 27 -4 0 -6 9 -3 20 3 11 2 20 -3 20 -4 0 -11 7 -14 16 -3 8 -2 13 3 10 5
-4 9 28 10 71 0 50 5 79 13 85 10 6 10 8 1 8 -7 0 -13 11 -13 25 0 14 5 25 10
25 6 0 10 33 10 80 0 47 4 80 10 80 6 0 10 27 10 60 l0 60 40 0 c22 0 40 5 40
10 0 6 18 10 40 10 22 0 40 -4 40 -10 0 -5 9 -10 21 -10 32 0 59 -19 59 -40 0
-11 6 -20 14 -20 11 0 26 -31 30 -62 1 -3 4 -10 9 -14 4 -4 7 -17 7 -28 0 -28
31 -106 42 -106 5 0 7 4 3 9 -3 6 -15 59 -26 118 -30 152 -37 459 -16 643 16
136 78 378 129 500 47 114 141 293 200 380 105 155 356 399 530 516 300 201
612 308 1013 348 76 8 390 -5 475 -18z m130 -56 c0 -5 -7 -10 -15 -10 -8 0
-15 5 -15 10 0 6 7 10 15 10 8 0 15 -4 15 -10z m600 -251 c0 -6 -4 -7 -10 -4
-5 3 -10 11 -10 16 0 6 5 7 10 4 6 -3 10 -11 10 -16z m-970 -39 c13 -8 15
-139 12 -1102 -2 -601 -4 -1093 -5 -1093 -1 -1 -43 1 -93 3 l-91 4 -5 71 c-5
76 -22 118 -78 192 -116 156 -147 956 -55 1445 51 268 77 339 153 417 60 62
124 87 162 63z m859 -417 c31 -15 85 -57 126 -97 108 -107 162 -218 201 -416
21 -105 15 -325 -11 -410 -41 -135 -144 -266 -255 -324 -88 -46 -118 -73 -129
-114 -6 -24 -7 -295 -2 -762 4 -399 5 -747 2 -775 -4 -34 -11 -50 -21 -51 -8
-1 -26 -5 -40 -8 -38 -10 -70 24 -71 77 -1 32 -3 36 -8 18 -6 -21 -8 -22 -19
-8 -11 13 -13 160 -10 754 3 640 1 742 -12 768 -10 20 -43 47 -100 80 -159 94
-259 223 -306 396 -28 104 -24 307 9 433 33 122 70 202 130 282 79 104 190
179 286 193 69 10 169 -5 230 -36z m-2882 -1505 c-3 -8 -6 -5 -6 6 -1 11 2 17
5 13 3 -3 4 -12 1 -19z m28 -108 c5 -31 4 -42 -3 -35 -6 6 -14 30 -18 55 -4
31 -3 42 4 35 5 -5 13 -30 17 -55z m-455 -10 c0 -22 -4 -40 -10 -40 -5 0 -10
18 -10 40 0 22 5 40 10 40 6 0 10 -18 10 -40z m507 -212 c-3 -8 -6 -5 -6 6 -1
11 2 17 5 13 3 -3 4 -12 1 -19z m23 -63 c0 -5 -5 -3 -10 5 -5 8 -10 20 -10 25
0 6 5 3 10 -5 5 -8 10 -19 10 -25z m1943 -590 c-1 -338 -5 -620 -9 -626 -8
-13 -160 -7 -175 8 -4 4 -9 85 -10 180 -2 95 -6 170 -11 167 -4 -3 -8 195 -8
440 l0 446 108 0 107 0 -2 -615z m-1876 448 c6 -21 15 -47 18 -58 6 -18 5 -18
-5 -3 -16 26 -40 98 -32 98 4 0 12 -17 19 -37z m81 -178 c-3 -3 -9 2 -12 12
-6 14 -5 15 5 6 7 -7 10 -15 7 -18z m282 -352 c0 -7 -39 17 -46 28 -3 6 5 3
20 -6 14 -10 26 -19 26 -22z m61 -60 c13 -16 12 -17 -3 -4 -17 13 -22 21 -14
21 2 0 10 -8 17 -17z m114 -59 c11 -8 21 -24 21 -35 1 -19 0 -19 -24 3 -14 13
-22 17 -18 11 10 -17 -2 -16 -20 1 -16 17 -19 30 -4 21 6 -3 10 -1 10 4 0 15
11 13 35 -5z m9 -150 c9 -3 16 -11 16 -16 0 -7 -5 -6 -13 1 -8 6 -17 8 -20 4
-4 -3 -7 -1 -7 5 0 14 2 14 24 6z"/>
<path d="M5383 8263 c9 -2 23 -2 30 0 6 3 -1 5 -18 5 -16 0 -22 -2 -12 -5z"/>
<path d="M5438 8259 c8 -8 174 -18 167 -10 -3 2 -43 7 -90 10 -46 4 -81 3 -77
0z"/>
<path d="M4788 8203 c7 -3 16 -2 19 1 4 3 -2 6 -13 5 -11 0 -14 -3 -6 -6z"/>
<path d="M4590 8148 c-19 -6 -30 -12 -24 -14 5 -3 28 2 50 10 45 17 26 19 -26
4z"/>
<path d="M6045 8120 c3 -5 13 -10 21 -10 8 0 12 5 9 10 -3 6 -13 10 -21 10 -8
0 -12 -4 -9 -10z"/>
<path d="M6165 8071 c3 -6 25 -21 47 -32 22 -11 37 -16 33 -10 -3 6 -25 21
-47 32 -22 11 -37 16 -33 10z"/>
<path d="M6285 8000 c3 -5 8 -10 11 -10 2 0 4 5 4 10 0 6 -5 10 -11 10 -5 0
-7 -4 -4 -10z"/>
<path d="M6634 7738 c-4 -7 -4 -10 0 -6 5 4 26 -11 48 -34 21 -22 42 -37 45
-34 7 7 -43 63 -69 77 -11 6 -19 5 -24 -3z"/>
<path d="M6860 7501 c0 -5 7 -14 15 -21 16 -14 18 -10 9 14 -6 17 -24 22 -24
7z"/>
<path d="M3675 7490 c3 -5 8 -10 11 -10 2 0 4 5 4 10 0 6 -5 10 -11 10 -5 0
-7 -4 -4 -10z"/>
<path d="M7225 6801 c-3 -5 -1 -12 5 -16 5 -3 10 1 10 9 0 18 -6 21 -15 7z"/>
<path d="M7280 6556 c0 -8 4 -17 9 -20 5 -4 7 3 4 14 -6 23 -13 26 -13 6z"/>
<path d="M7262 5840 c0 -14 2 -19 5 -12 2 6 2 18 0 25 -3 6 -5 1 -5 -13z"/>
<path d="M7240 5760 c-6 -11 -9 -26 -7 -33 3 -7 10 1 16 17 14 35 7 47 -9 16z"/>
<path d="M3302 5740 c7 -10 14 -18 15 -16 6 6 -9 36 -18 36 -5 0 -4 -9 3 -20z"/>
<path d="M3321 5695 c1 -19 18 -51 18 -35 0 8 -4 22 -9 30 -5 8 -9 11 -9 5z"/>
<path d="M7184 5593 c-3 -10 -13 -36 -21 -58 -8 -23 -10 -35 -3 -29 12 12 42
104 34 104 -2 0 -7 -8 -10 -17z"/>
<path d="M3380 5535 c0 -5 5 -17 10 -25 5 -8 10 -10 10 -5 0 6 -5 17 -10 25
-5 8 -10 11 -10 5z"/>
<path d="M3400 5485 c0 -5 5 -17 10 -25 5 -8 10 -10 10 -5 0 6 -5 17 -10 25
-5 8 -10 11 -10 5z"/>
<path d="M3461 5365 c0 -5 11 -30 24 -55 13 -25 24 -40 24 -35 0 6 -11 30 -24
55 -13 25 -24 41 -24 35z"/>
<path d="M3537 5213 c9 -24 70 -112 99 -143 13 -14 33 -36 44 -49 11 -13 20
-21 20 -17 0 4 -24 37 -53 74 -30 37 -66 86 -80 110 -28 44 -41 55 -30 25z"/>
<path d="M6742 4888 c-7 -7 -12 -16 -12 -21 0 -5 7 -1 16 8 9 9 14 18 12 20
-2 3 -10 -1 -16 -7z"/>
<path d="M3830 4865 c13 -14 27 -25 31 -25 5 0 -3 11 -17 25 -14 14 -28 25
-31 25 -4 0 4 -11 17 -25z"/>
<path d="M3909 4794 c17 -14 28 -31 24 -36 -4 -7 -1 -8 6 -3 9 5 5 15 -15 36
-15 16 -32 29 -37 29 -5 0 5 -12 22 -26z"/>
<path d="M3347 4789 c7 -7 15 -10 18 -7 3 3 -2 9 -12 12 -14 6 -15 5 -6 -5z"/>
<path d="M5948 7459 c-27 -12 -49 -29 -49 -38 -2 -30 3 -56 12 -59 5 -2 9 -9
9 -16 0 -6 17 -27 38 -46 20 -19 54 -60 75 -90 20 -30 58 -82 83 -115 58 -78
154 -275 194 -401 18 -54 39 -119 47 -143 18 -49 67 -108 78 -92 3 6 3 11 -1
11 -4 0 0 6 10 13 26 19 65 169 72 278 9 122 -8 235 -51 356 -60 168 -135 265
-252 324 -88 44 -191 51 -265 18z"/>
<path d="M3580 8130 c0 -5 5 -10 10 -10 6 0 10 5 10 10 0 6 -4 10 -10 10 -5 0
-10 -4 -10 -10z"/>
<path d="M3220 4486 c0 -20 14 -28 36 -19 16 6 16 7 -2 20 -23 17 -34 17 -34
-1z"/>
<path d="M3250 4451 c0 -5 7 -11 15 -15 8 -3 15 -1 15 3 0 5 -7 11 -15 15 -8
3 -15 1 -15 -3z"/>
<path d="M3769 1494 c-68 -44 -92 -137 -53 -205 26 -44 79 -79 119 -79 61 0
146 86 145 147 -1 34 -38 100 -70 123 -41 29 -107 36 -141 14z"/>
</g>
</svg>
