<?xml version="1.0" standalone="no"?>
<!DOCTYPE svg PUBLIC "-//W3C//DTD SVG 20010904//EN"
 "http://www.w3.org/TR/2001/REC-SVG-20010904/DTD/svg10.dtd">
<svg version="1.0" xmlns="http://www.w3.org/2000/svg"
 width="1024.000000pt" height="1024.000000pt" viewBox="0 0 1024.000000 1024.000000"
 preserveAspectRatio="xMidYMid meet">

<g transform="translate(0.000000,1024.000000) scale(0.100000,-0.100000)"
fill="#000000" stroke="none">
<path d="M5083 9033 c9 -2 23 -2 30 0 6 3 -1 5 -18 5 -16 0 -22 -2 -12 -5z"/>
<path d="M4888 9013 c7 -3 16 -2 19 1 4 3 -2 6 -13 5 -11 0 -14 -3 -6 -6z"/>
<path d="M4828 9003 c7 -3 16 -2 19 1 4 3 -2 6 -13 5 -11 0 -14 -3 -6 -6z"/>
<path d="M5178 8913 c7 -3 16 -2 19 1 4 3 -2 6 -13 5 -11 0 -14 -3 -6 -6z"/>
<path d="M5058 8903 c7 -3 16 -2 19 1 4 3 -2 6 -13 5 -11 0 -14 -3 -6 -6z"/>
<path d="M4948 8893 c7 -3 16 -2 19 1 4 3 -2 6 -13 5 -11 0 -14 -3 -6 -6z"/>
<path d="M5243 8753 c26 -2 68 -2 95 0 26 2 4 3 -48 3 -52 0 -74 -1 -47 -3z"/>
<path d="M5033 8743 c9 -2 23 -2 30 0 6 3 -1 5 -18 5 -16 0 -22 -2 -12 -5z"/>
<path d="M3539 8423 c-13 -16 -12 -17 4 -4 9 7 17 15 17 17 0 8 -8 3 -21 -13z"/>
<path d="M3429 8333 l-24 -28 28 24 c25 23 32 31 24 31 -2 0 -14 -12 -28 -27z"/>
<path d="M7125 8340 c10 -11 20 -20 23 -20 3 0 -3 9 -13 20 -10 11 -20 20 -23
20 -3 0 3 -9 13 -20z"/>
<path d="M3549 8293 c-13 -16 -12 -17 4 -4 9 7 17 15 17 17 0 8 -8 3 -21 -13z"/>
<path d="M5118 8283 c12 -2 30 -2 40 0 9 3 -1 5 -23 4 -22 0 -30 -2 -17 -4z"/>
<path d="M5418 8283 c12 -2 32 -2 45 0 12 2 2 4 -23 4 -25 0 -35 -2 -22 -4z"/>
<path d="M3315 8228 l-50 -53 53 50 c48 46 57 55 49 55 -1 0 -25 -24 -52 -52z"/>
<path d="M3679 8263 c-13 -16 -12 -17 4 -4 16 13 21 21 13 21 -2 0 -10 -8 -17
-17z"/>
<path d="M5018 8273 c7 -3 16 -2 19 1 4 3 -2 6 -13 5 -11 0 -14 -3 -6 -6z"/>
<path d="M5383 8263 c9 -2 23 -2 30 0 6 3 -1 5 -18 5 -16 0 -22 -2 -12 -5z"/>
<path d="M5438 8259 c8 -8 174 -18 167 -10 -3 2 -43 7 -90 10 -46 4 -81 3 -77
0z"/>
<path d="M5618 8263 c7 -3 16 -2 19 1 4 3 -2 6 -13 5 -11 0 -14 -3 -6 -6z"/>
<path d="M5208 8243 c28 -2 76 -2 105 0 28 2 5 3 -53 3 -58 0 -81 -1 -52 -3z"/>
<path d="M3624 8218 l-19 -23 23 19 c21 18 27 26 19 26 -2 0 -12 -10 -23 -22z"/>
<path d="M5043 8233 c9 -2 23 -2 30 0 6 3 -1 5 -18 5 -16 0 -22 -2 -12 -5z"/>
<path d="M5655 8233 c11 -3 26 -13 33 -22 10 -12 15 -13 18 -3 8 18 31 15 38
-5 6 -14 9 -15 15 -4 7 10 10 9 14 -3 4 -9 12 -16 19 -16 9 0 8 3 -2 10 -20
13 -8 12 46 -1 33 -9 42 -14 32 -21 -9 -7 -8 -8 5 -4 10 3 24 6 30 6 26 1 -25
20 -115 45 -53 14 -109 24 -125 24 -20 -1 -23 -3 -8 -6z"/>
<path d="M4998 8223 c7 -3 16 -2 19 1 4 3 -2 6 -13 5 -11 0 -14 -3 -6 -6z"/>
<path d="M4900 8210 c-11 -8 -7 -9 15 -4 37 8 45 14 19 14 -10 0 -26 -5 -34
-10z"/>
<path d="M5638 8213 c7 -3 16 -2 19 1 4 3 -2 6 -13 5 -11 0 -14 -3 -6 -6z"/>
<path d="M4788 8203 c7 -3 16 -2 19 1 4 3 -2 6 -13 5 -11 0 -14 -3 -6 -6z"/>
<path d="M3370 8133 l-65 -68 68 65 c37 35 67 66 67 67 0 8 -10 -2 -70 -64z"/>
<path d="M3669 8173 c-13 -16 -12 -17 4 -4 9 7 17 15 17 17 0 8 -8 3 -21 -13z"/>
<path d="M4708 8163 c7 -3 16 -2 19 1 4 3 -2 6 -13 5 -11 0 -14 -3 -6 -6z"/>
<path d="M7180 8135 c19 -19 36 -35 39 -35 3 0 -10 16 -29 35 -19 19 -36 35
-39 35 -3 0 10 -16 29 -35z"/>
<path d="M3529 8133 l-24 -28 28 24 c25 23 32 31 24 31 -2 0 -14 -12 -28 -27z"/>
<path d="M4593 8149 c-43 -13 -42 -17 6 -15 25 0 35 4 28 9 -8 6 -4 7 11 4 12
-3 20 -1 16 4 -6 11 -18 10 -61 -2z"/>
<path d="M6920 8157 c0 -2 15 -16 33 -33 l32 -29 -29 33 c-28 30 -36 37 -36
29z"/>
<path d="M7010 8156 c0 -2 8 -10 18 -17 15 -13 16 -12 3 4 -13 16 -21 21 -21
13z"/>
<path d="M3620 8135 c-10 -13 -15 -13 -21 -3 -4 7 -12 9 -16 4 -4 -5 -2 -11 5
-13 6 -3 9 -10 5 -16 -3 -7 6 -1 20 12 15 14 27 26 27 28 0 7 -8 2 -20 -12z"/>
<path d="M6045 8120 c3 -5 13 -10 21 -10 8 0 12 5 9 10 -3 6 -13 10 -21 10 -8
0 -12 -4 -9 -10z"/>
<path d="M3184 8088 l-29 -33 33 29 c30 28 37 36 29 36 -2 0 -16 -15 -33 -32z"/>
<path d="M7370 8096 c0 -2 8 -10 18 -17 15 -13 16 -12 3 4 -13 16 -21 21 -21
13z"/>
<path d="M3537 8065 c-15 -14 -24 -25 -19 -25 5 0 19 11 32 25 30 32 23 32
-13 0z"/>
<path d="M7230 8086 c0 -2 8 -10 18 -17 15 -13 16 -12 3 4 -13 16 -21 21 -21
13z"/>
<path d="M6165 8071 c3 -6 25 -21 47 -32 22 -11 37 -16 33 -10 -3 6 -25 21
-47 32 -22 11 -37 16 -33 10z"/>
<path d="M7030 8055 c13 -14 26 -25 28 -25 3 0 -5 11 -18 25 -13 14 -26 25
-28 25 -3 0 5 -11 18 -25z"/>
<path d="M4425 8060 c-3 -6 1 -7 9 -4 18 7 21 14 7 14 -6 0 -13 -4 -16 -10z"/>
<path d="M6285 8000 c3 -5 8 -10 11 -10 2 0 4 5 4 10 0 6 -5 10 -11 10 -5 0
-7 -4 -4 -10z"/>
<path d="M3089 7973 c-13 -16 -12 -17 4 -4 9 7 17 15 17 17 0 8 -8 3 -21 -13z"/>
<path d="M4275 7980 c-3 -6 1 -7 9 -4 18 7 21 14 7 14 -6 0 -13 -4 -16 -10z"/>
<path d="M6303 7982 c-9 -5 -6 -11 7 -20 16 -10 18 -9 13 5 -4 11 -3 14 5 9 7
-4 12 -14 12 -21 0 -8 10 -19 23 -25 21 -11 21 -10 3 4 -23 18 -14 21 15 5 11
-5 17 -14 14 -19 -8 -13 9 -20 25 -10 12 8 11 12 -8 25 -12 9 -20 20 -17 25 3
4 -3 7 -13 6 -9 0 -16 4 -15 9 2 12 -48 17 -64 7z"/>
<path d="M4206 7971 c-9 -14 5 -42 16 -35 6 4 5 10 -3 15 -12 8 -11 11 1 19 9
6 10 10 3 10 -6 0 -14 -4 -17 -9z"/>
<path d="M7140 7945 c19 -19 36 -35 39 -35 3 0 -10 16 -29 35 -19 19 -36 35
-39 35 -3 0 10 -16 29 -35z"/>
<path d="M4124 7944 c-18 -14 -18 -15 4 -4 12 6 22 13 22 15 0 8 -5 6 -26 -11z"/>
<path d="M3384 7908 c-31 -34 -67 -81 -47 -63 21 20 85 95 81 95 -2 0 -18 -15
-34 -32z"/>
<path d="M4079 7913 c-13 -16 -12 -17 4 -4 9 7 17 15 17 17 0 8 -8 3 -21 -13z"/>
<path d="M3284 7888 l-29 -33 33 29 c30 28 37 36 29 36 -2 0 -16 -15 -33 -32z"/>
<path d="M6426 7901 c-3 -5 18 -27 47 -48 28 -22 87 -73 130 -113 42 -40 74
-65 71 -56 -8 22 2 20 25 -3 14 -14 16 -21 8 -25 -9 -3 -8 -5 1 -5 7 -1 15 6
18 14 4 8 11 12 16 9 6 -4 5 -10 -3 -15 -12 -8 -12 -11 1 -18 8 -6 11 -13 7
-17 -3 -4 -15 -1 -24 7 -17 12 -17 12 -2 -4 17 -19 59 -31 59 -17 0 5 -4 12
-10 15 -5 3 -10 11 -10 17 0 6 10 3 23 -8 12 -10 -2 7 -32 38 -30 31 -59 56
-65 55 -6 -1 -10 3 -9 9 2 11 -25 12 -43 1 -13 -7 -71 49 -61 59 4 4 -2 15
-14 24 -11 10 -19 22 -18 26 3 20 -2 24 -21 14 -15 -8 -20 -8 -20 2 0 8 -13
21 -29 31 -33 20 -38 20 -45 8z m240 -198 c-8 -9 -37 18 -30 28 3 5 12 2 21
-6 8 -9 13 -19 9 -22z m49 -3 c10 -11 16 -20 13 -20 -3 0 -13 9 -23 20 -10 11
-16 20 -13 20 3 0 13 -9 23 -20z"/>
<path d="M4119 7873 c-13 -16 -12 -17 4 -4 9 7 17 15 17 17 0 8 -8 3 -21 -13z"/>
<path d="M3989 7843 c-13 -16 -12 -17 4 -4 9 7 17 15 17 17 0 8 -8 3 -21 -13z"/>
<path d="M3239 7833 c-13 -16 -12 -17 4 -4 16 13 21 21 13 21 -2 0 -10 -8 -17
-17z"/>
<path d="M2970 7810 c-12 -16 -19 -30 -16 -30 2 0 14 14 26 30 12 17 19 30 16
30 -2 0 -14 -13 -26 -30z"/>
<path d="M6590 7815 c13 -14 26 -25 28 -25 3 0 -5 11 -18 25 -13 14 -26 25
-28 25 -3 0 5 -11 18 -25z"/>
<path d="M3294 7798 l-19 -23 23 19 c21 18 27 26 19 26 -2 0 -12 -10 -23 -22z"/>
<path d="M3919 7783 l-34 -38 38 34 c20 19 37 36 37 38 0 8 -8 0 -41 -34z"/>
<path d="M3209 7793 c-13 -16 -12 -17 4 -4 16 13 21 21 13 21 -2 0 -10 -8 -17
-17z"/>
<path d="M4004 7788 l-19 -23 23 19 c21 18 27 26 19 26 -2 0 -12 -10 -23 -22z"/>
<path d="M3956 7763 c4 -15 -22 -37 -34 -29 -6 3 -15 -1 -21 -8 -8 -10 -9 -16
-1 -21 5 -3 27 10 48 31 20 20 32 33 25 30 -6 -3 -13 -3 -16 1 -2 5 -2 3 -1
-4z"/>
<path d="M3179 7753 c-13 -16 -12 -17 4 -4 16 13 21 21 13 21 -2 0 -10 -8 -17
-17z"/>
<path d="M2910 7720 c-6 -11 -8 -20 -6 -20 3 0 10 9 16 20 6 11 8 20 6 20 -3
0 -10 -9 -16 -20z"/>
<path d="M3229 7713 c-13 -16 -12 -17 4 -4 9 7 17 15 17 17 0 8 -8 3 -21 -13z"/>
<path d="M3829 7703 c-13 -16 -12 -17 4 -4 16 13 21 21 13 21 -2 0 -10 -8 -17
-17z"/>
<path d="M6303 7685 c-17 -9 -20 -14 -11 -23 7 -7 18 -12 25 -12 7 0 13 -11
13 -24 0 -17 14 -36 45 -62 25 -20 45 -44 45 -54 0 -9 12 -29 27 -44 28 -28
33 -35 71 -105 12 -22 26 -41 31 -41 4 0 16 -18 26 -39 9 -22 30 -52 45 -66
18 -17 37 -54 51 -99 31 -101 53 -156 62 -156 4 0 7 -7 7 -16 0 -8 7 -22 15
-30 8 -9 15 -30 15 -47 0 -68 12 -107 31 -107 15 0 19 -7 19 -35 0 -19 5 -35
10 -35 6 0 27 -18 47 -40 23 -24 46 -40 60 -40 16 0 23 -6 23 -19 0 -20 18
-31 51 -31 22 0 23 4 9 31 -8 14 -7 19 1 19 32 0 -41 272 -115 431 -106 227
-257 400 -551 632 -25 20 -34 22 -52 12z"/>
<path d="M2880 7670 c-6 -11 -8 -20 -6 -20 3 0 10 9 16 20 6 11 8 20 6 20 -3
0 -10 -9 -16 -20z"/>
<path d="M3199 7673 c-13 -16 -12 -17 4 -4 16 13 21 21 13 21 -2 0 -10 -8 -17
-17z"/>
<path d="M3875 7680 c-4 -6 -11 -7 -17 -4 -7 4 -8 2 -4 -5 6 -9 11 -9 22 0 14
11 18 19 10 19 -3 0 -8 -5 -11 -10z"/>
<path d="M2815 7560 c-9 -16 -13 -30 -11 -30 3 0 12 14 21 30 9 17 13 30 11
30 -3 0 -12 -13 -21 -30z"/>
<path d="M3694 7558 l-19 -23 23 19 c12 11 22 21 22 23 0 8 -8 2 -26 -19z"/>
<path d="M6770 7576 c0 -2 7 -9 15 -16 13 -11 14 -10 9 4 -5 14 -24 23 -24 12z"/>
<path d="M3749 7543 l-24 -28 28 24 c25 23 32 31 24 31 -2 0 -14 -12 -28 -27z"/>
<path d="M4504 7390 c0 -96 2 -136 3 -87 2 48 2 126 0 175 -1 48 -3 8 -3 -88z"/>
<path d="M4683 7490 c0 -41 2 -58 4 -37 2 20 2 54 0 75 -2 20 -4 3 -4 -38z"/>
<path d="M6837 7553 c-21 -5 -19 -38 2 -38 8 0 16 -6 19 -14 3 -9 0 -11 -9 -6
-11 6 -12 5 -2 -5 14 -15 43 -22 43 -11 0 5 -9 18 -20 31 -25 28 -26 47 -2 29
15 -13 16 -12 3 4 -7 9 -14 16 -15 16 0 -1 -9 -3 -19 -6z"/>
<path d="M6018 7543 c7 -3 16 -2 19 1 4 3 -2 6 -13 5 -11 0 -14 -3 -6 -6z"/>
<path d="M6058 7543 c6 -2 18 -2 25 0 6 3 1 5 -13 5 -14 0 -19 -2 -12 -5z"/>
<path d="M3644 7498 l-19 -23 23 19 c21 18 27 26 19 26 -2 0 -12 -10 -23 -22z"/>
<path d="M4761 7494 c0 -11 3 -14 6 -6 3 7 2 16 -1 19 -3 4 -6 -2 -5 -13z"/>
<path d="M5383 7450 c0 -36 2 -50 4 -32 2 17 2 47 0 65 -2 17 -4 3 -4 -33z"/>
<path d="M3679 7487 c6 -8 7 -18 3 -23 -4 -5 3 0 16 10 12 11 22 21 22 24 0 2
-7 -1 -15 -8 -10 -9 -15 -9 -15 -1 0 6 -5 11 -11 11 -8 0 -9 -4 0 -13z"/>
<path d="M6900 7496 c0 -2 8 -10 18 -17 15 -13 16 -12 3 4 -13 16 -21 21 -21
13z"/>
<path d="M4314 7280 c0 -118 2 -167 3 -107 2 59 2 155 0 215 -1 59 -3 10 -3
-108z"/>
<path d="M5948 7459 c-27 -12 -49 -29 -49 -38 -2 -30 3 -56 12 -59 5 -2 9 -9
9 -16 0 -6 17 -27 38 -46 20 -19 54 -60 75 -90 20 -30 58 -82 83 -115 58 -78
154 -275 194 -401 18 -54 39 -119 47 -143 18 -49 67 -108 78 -92 3 6 3 11 -1
11 -4 0 0 6 10 13 26 19 65 169 72 278 8 119 -8 233 -48 348 -38 109 -61 153
-95 187 -16 15 -21 23 -13 18 8 -4 -10 17 -40 47 -77 77 -154 113 -250 117
-59 2 -85 -2 -122 -19z"/>
<path d="M6892 7433 c5 -7 14 -10 19 -7 16 10 9 23 -10 21 -15 -1 -17 -4 -9
-14z"/>
<path d="M4404 7300 c0 -80 2 -112 3 -72 2 39 2 105 0 145 -1 39 -3 7 -3 -73z"/>
<path d="M6350 7416 c0 -2 8 -10 18 -17 15 -13 16 -12 3 4 -13 16 -21 21 -21
13z"/>
<path d="M4133 7345 c0 -38 2 -53 4 -32 2 20 2 52 0 70 -2 17 -4 1 -4 -38z"/>
<path d="M6910 7407 c0 -2 6 -10 14 -16 11 -9 16 -9 22 1 4 7 4 10 -1 6 -4 -4
-14 -3 -22 3 -7 6 -13 9 -13 6z"/>
<path d="M3536 7343 c-6 -14 -5 -15 5 -6 7 7 10 15 7 18 -3 3 -9 -2 -12 -12z"/>
<path d="M5031 7324 c0 -11 3 -14 6 -6 3 7 2 16 -1 19 -3 4 -6 -2 -5 -13z"/>
<path d="M2646 7195 c-9 -26 -7 -32 5 -12 6 10 9 21 6 23 -2 3 -7 -2 -11 -11z"/>
<path d="M7060 7202 c0 -7 -5 -10 -12 -6 -7 4 -8 3 -4 -5 4 -6 12 -8 18 -5 6
4 8 2 4 -4 -3 -6 -1 -22 6 -37 8 -18 14 -22 20 -13 4 7 8 18 8 23 0 15 -40 62
-40 47z"/>
<path d="M3416 7113 c-6 -14 -5 -15 5 -6 7 7 10 15 7 18 -3 3 -9 -2 -12 -12z"/>
<path d="M3466 7093 c-6 -14 -5 -15 5 -6 7 7 10 15 7 18 -3 3 -9 -2 -12 -12z"/>
<path d="M5384 6875 c0 -132 2 -185 3 -117 2 68 2 176 0 240 -1 64 -3 9 -3
-123z"/>
<path d="M4772 7055 c0 -16 2 -22 5 -12 2 9 2 23 0 30 -3 6 -5 -1 -5 -18z"/>
<path d="M7139 7035 c-7 -27 27 -106 36 -83 4 9 -2 36 -12 60 -16 35 -20 39
-24 23z"/>
<path d="M2581 6994 c0 -11 3 -14 6 -6 3 7 2 16 -1 19 -3 4 -6 -2 -5 -13z"/>
<path d="M5001 6984 c0 -11 3 -14 6 -6 3 7 2 16 -1 19 -3 4 -6 -2 -5 -13z"/>
<path d="M4404 6800 c0 -91 2 -128 3 -82 2 45 2 119 0 165 -1 45 -3 8 -3 -83z"/>
<path d="M4123 6890 c0 -30 2 -43 4 -27 2 15 2 39 0 55 -2 15 -4 2 -4 -28z"/>
<path d="M7181 6884 c0 -11 3 -14 6 -6 3 7 2 16 -1 19 -3 4 -6 -2 -5 -13z"/>
<path d="M4584 6785 c0 -49 1 -71 3 -48 2 23 2 64 0 90 -2 26 -3 8 -3 -42z"/>
<path d="M3311 6819 c-7 -22 -11 -43 -8 -45 2 -2 9 14 16 37 7 22 11 43 8 45
-2 2 -9 -14 -16 -37z"/>
<path d="M7220 6795 c-7 -9 -10 -18 -6 -22 3 -3 6 -1 6 6 0 7 5 9 10 6 6 -3
10 1 10 9 0 20 -4 20 -20 1z"/>
<path d="M4991 6774 c0 -11 3 -14 6 -6 3 7 2 16 -1 19 -3 4 -6 -2 -5 -13z"/>
<path d="M2521 6744 c0 -11 3 -14 6 -6 3 7 2 16 -1 19 -3 4 -6 -2 -5 -13z"/>
<path d="M3291 6744 c0 -11 3 -14 6 -6 3 7 2 16 -1 19 -3 4 -6 -2 -5 -13z"/>
<path d="M5551 6744 c0 -11 3 -14 6 -6 3 7 2 16 -1 19 -3 4 -6 -2 -5 -13z"/>
<path d="M7221 6744 c0 -11 3 -14 6 -6 3 7 2 16 -1 19 -3 4 -6 -2 -5 -13z"/>
<path d="M4784 6645 c0 -55 1 -76 3 -47 2 29 2 74 0 100 -2 26 -3 2 -3 -53z"/>
<path d="M2831 6714 c0 -11 3 -14 6 -6 3 7 2 16 -1 19 -3 4 -6 -2 -5 -13z"/>
<path d="M2511 6704 c0 -11 3 -14 6 -6 3 7 2 16 -1 19 -3 4 -6 -2 -5 -13z"/>
<path d="M3281 6704 c0 -11 3 -14 6 -6 3 7 2 16 -1 19 -3 4 -6 -2 -5 -13z"/>
<path d="M6562 6670 c0 -14 2 -19 5 -12 2 6 2 18 0 25 -3 6 -5 1 -5 -13z"/>
<path d="M2721 6664 c0 -11 3 -14 6 -6 3 7 2 16 -1 19 -3 4 -6 -2 -5 -13z"/>
<path d="M3271 6654 c0 -11 3 -14 6 -6 3 7 2 16 -1 19 -3 4 -6 -2 -5 -13z"/>
<path d="M4581 6654 c0 -11 3 -14 6 -6 3 7 2 16 -1 19 -3 4 -6 -2 -5 -13z"/>
<path d="M2502 6635 c0 -16 2 -22 5 -12 2 9 2 23 0 30 -3 6 -5 -1 -5 -18z"/>
<path d="M4113 6580 c0 -30 2 -43 4 -27 2 15 2 39 0 55 -2 15 -4 2 -4 -28z"/>
<path d="M7771 6614 c0 -11 3 -14 6 -6 3 7 2 16 -1 19 -3 4 -6 -2 -5 -13z"/>
<path d="M3262 6580 c0 -14 2 -19 5 -12 2 6 2 18 0 25 -3 6 -5 1 -5 -13z"/>
<path d="M7301 6570 c-2 -29 -4 -32 -11 -15 -7 16 -9 17 -9 3 -1 -22 18 -33
25 -14 3 8 4 25 1 38 -3 17 -5 14 -6 -12z"/>
<path d="M2920 6563 c0 -21 -5 -23 -45 -23 -38 0 -45 3 -45 20 0 24 -15 26
-24 3 -18 -45 -29 -331 -18 -443 7 -63 12 -123 13 -132 0 -10 5 -18 12 -18 8
0 8 -3 1 -10 -7 -7 -8 -30 -2 -67 5 -31 6 -63 4 -70 -3 -8 -2 -12 3 -9 11 7
65 -209 57 -229 -4 -11 -2 -14 6 -9 7 5 9 0 6 -14 -4 -15 -2 -19 9 -15 13 5
13 3 3 -17 -7 -12 -7 -20 -2 -16 6 3 12 1 14 -6 3 -9 6 -9 12 0 4 7 3 12 -1
12 -13 0 -3 174 10 182 9 6 9 8 0 8 -7 0 -13 11 -13 25 0 14 5 25 10 25 6 0
10 33 10 80 0 47 4 80 10 80 6 0 10 27 10 60 l0 60 40 0 c22 0 40 5 40 10 0 6
18 10 40 10 22 0 40 -4 40 -10 0 -5 9 -10 21 -10 32 0 59 -19 59 -40 0 -11 6
-20 14 -20 11 0 26 -31 30 -62 1 -3 4 -10 9 -14 4 -4 7 -17 7 -28 0 -28 31
-106 42 -106 5 0 7 4 3 9 -14 24 -46 236 -50 336 -12 266 -12 355 -3 349 8 -5
1 84 -8 95 -1 2 -6 -25 -10 -60 -7 -59 -8 -62 -18 -37 -32 76 -100 114 -213
119 -81 4 -83 3 -83 -18z m0 -683 c0 -22 -4 -40 -10 -40 -5 0 -10 18 -10 40 0
22 5 40 10 40 6 0 10 -18 10 -40z"/>
<path d="M2711 6564 c0 -11 3 -14 6 -6 3 7 2 16 -1 19 -3 4 -6 -2 -5 -13z"/>
<path d="M7782 6550 c0 -19 2 -27 5 -17 2 9 2 25 0 35 -3 9 -5 1 -5 -18z"/>
<path d="M7261 6554 c0 -11 3 -14 6 -6 3 7 2 16 -1 19 -3 4 -6 -2 -5 -13z"/>
<path d="M5002 6530 c0 -14 2 -19 5 -12 2 6 2 18 0 25 -3 6 -5 1 -5 -13z"/>
<path d="M7295 6370 c2 -133 1 -141 -4 -55 -7 99 -7 98 -9 -55 -1 -85 -4 -177
-6 -205 -3 -39 -2 -42 3 -15 6 30 9 22 16 -50 l9 -85 7 55 c22 166 21 586 -1
550 -6 -10 -9 -9 -12 1 -3 8 -4 -56 -3 -141z"/>
<path d="M3302 6480 c0 -14 2 -19 5 -12 2 6 2 18 0 25 -3 6 -5 1 -5 -13z"/>
<path d="M7272 6480 c0 -14 2 -19 5 -12 2 6 2 18 0 25 -3 6 -5 1 -5 -13z"/>
<path d="M2482 6470 c0 -14 2 -19 5 -12 2 6 2 18 0 25 -3 6 -5 1 -5 -13z"/>
<path d="M7797 6380 c3 -63 7 -117 9 -119 8 -9 3 155 -6 194 -5 26 -6 -1 -3
-75z"/>
<path d="M7852 6440 c0 -19 2 -27 5 -17 2 9 2 25 0 35 -3 9 -5 1 -5 -18z"/>
<path d="M7951 6454 c0 -11 3 -14 6 -6 3 7 2 16 -1 19 -3 4 -6 -2 -5 -13z"/>
<path d="M5012 6400 c0 -14 2 -19 5 -12 2 6 2 18 0 25 -3 6 -5 1 -5 -13z"/>
<path d="M8072 6385 c0 -16 2 -22 5 -12 2 9 2 23 0 30 -3 6 -5 -1 -5 -18z"/>
<path d="M2704 6265 c0 -71 1 -99 3 -62 2 37 2 96 0 130 -2 34 -3 4 -3 -68z"/>
<path d="M2763 6310 c0 -36 2 -50 4 -32 2 17 2 47 0 65 -2 17 -4 3 -4 -33z"/>
<path d="M5384 6085 c0 -154 2 -216 3 -137 2 79 2 205 0 280 -1 75 -3 11 -3
-143z"/>
<path d="M3323 6186 c4 -91 11 -162 16 -166 6 -3 8 -23 6 -44 -3 -22 -1 -35 4
-31 13 7 17 -2 26 -54 5 -31 4 -42 -4 -37 -6 4 -11 17 -12 29 0 21 -1 21 -8 2
-5 -11 -5 -22 0 -25 4 -3 7 -12 6 -20 -3 -28 15 -100 25 -100 5 0 6 -9 3 -21
-5 -16 -4 -19 5 -14 9 5 10 2 5 -14 -4 -13 -2 -21 5 -21 6 0 8 -4 5 -10 -3 -5
-2 -10 4 -10 6 0 8 -7 5 -15 -4 -8 -1 -15 5 -15 6 0 11 6 11 13 0 7 5 5 10 -5
7 -11 7 -26 0 -43 -7 -19 -7 -24 2 -19 8 5 9 2 5 -10 -5 -11 -3 -15 5 -10 8 5
9 2 5 -10 -4 -9 -3 -15 2 -12 12 8 35 -50 25 -65 -5 -8 -3 -9 6 -4 10 6 12 4
6 -11 -5 -14 -4 -16 4 -8 7 7 8 19 1 37 -6 15 -7 27 -3 27 4 0 12 -17 19 -37
6 -21 15 -47 18 -58 6 -16 5 -17 -4 -5 -16 22 -13 3 4 -31 9 -16 13 -35 9 -41
-5 -7 -3 -8 6 -3 10 6 12 4 6 -11 -4 -10 -4 -15 0 -11 4 4 13 -1 21 -11 14
-16 14 -16 8 3 -5 15 -3 17 5 9 9 -9 9 -18 -1 -35 -11 -21 -10 -23 3 -11 13
10 15 9 13 -13 -2 -14 2 -23 8 -22 7 1 11 -6 11 -15 -1 -10 3 -16 10 -15 6 1
10 -6 10 -15 -1 -10 2 -15 7 -13 10 7 70 -80 67 -97 -2 -7 2 -12 8 -11 12 2
160 -157 157 -168 -1 -4 7 -15 17 -24 11 -10 20 -15 20 -11 0 4 10 1 23 -6 12
-7 27 -12 32 -13 6 0 10 -11 10 -25 0 -14 5 -25 10 -25 20 -1 55 -26 52 -37
-1 -7 3 -12 8 -13 6 0 15 -4 22 -8 6 -4 19 -4 30 -1 16 6 16 5 -2 -10 -11 -10
-15 -15 -10 -12 15 6 40 -10 40 -26 0 -7 9 -13 20 -13 11 0 19 -6 17 -13 -1
-6 1 -11 5 -11 18 3 34 -2 30 -8 -3 -5 8 -9 25 -10 24 -2 28 0 19 11 -6 7 -8
16 -5 19 4 3 -7 28 -24 54 -28 44 -95 107 -167 158 -95 67 -315 281 -315 306
0 6 -15 29 -33 52 -157 199 -300 590 -357 978 -11 73 -22 135 -26 138 -4 3 -4
-66 -1 -153z m104 -518 c-3 -8 -6 -5 -6 6 -1 11 2 17 5 13 3 -3 4 -12 1 -19z
m453 -735 c0 -7 -39 17 -46 28 -3 6 5 3 20 -6 14 -10 26 -19 26 -22z m31 -60
c13 -16 12 -17 -3 -4 -17 13 -22 21 -14 21 2 0 10 -8 17 -17z m30 0 c13 -16
12 -17 -3 -4 -17 13 -22 21 -14 21 2 0 10 -8 17 -17z m114 -59 c11 -8 21 -24
21 -35 1 -19 0 -19 -24 3 -14 13 -22 17 -18 11 4 -7 2 -13 -3 -13 -6 0 -11 5
-11 11 0 6 -7 9 -14 6 -10 -4 -13 -1 -9 8 3 8 9 12 14 9 5 -3 9 0 9 5 0 15 11
13 35 -5z"/>
<path d="M8073 6240 c0 -25 2 -35 4 -22 2 12 2 32 0 45 -2 12 -4 2 -4 -23z"/>
<path d="M7793 6170 c0 -25 2 -35 4 -22 2 12 2 32 0 45 -2 12 -4 2 -4 -23z"/>
<path d="M4205 6180 c10 -11 20 -20 23 -20 3 0 -3 9 -13 20 -10 11 -20 20 -23
20 -3 0 3 -9 13 -20z"/>
<path d="M7851 6184 c0 -11 3 -14 6 -6 3 7 2 16 -1 19 -3 4 -6 -2 -5 -13z"/>
<path d="M7952 6160 c0 -14 2 -19 5 -12 2 6 2 18 0 25 -3 6 -5 1 -5 -13z"/>
<path d="M3302 6145 c0 -16 2 -22 5 -12 2 9 2 23 0 30 -3 6 -5 -1 -5 -18z"/>
<path d="M2483 6125 c0 -22 2 -30 4 -17 2 12 2 30 0 40 -3 9 -5 -1 -4 -23z"/>
<path d="M2602 6140 c0 -14 2 -19 5 -12 2 6 2 18 0 25 -3 6 -5 1 -5 -13z"/>
<path d="M6151 6104 c0 -11 3 -14 6 -6 3 7 2 16 -1 19 -3 4 -6 -2 -5 -13z"/>
<path d="M8061 6104 c0 -11 3 -14 6 -6 3 7 2 16 -1 19 -3 4 -6 -2 -5 -13z"/>
<path d="M7783 6040 c0 -30 2 -43 4 -27 2 15 2 39 0 55 -2 15 -4 2 -4 -28z"/>
<path d="M7941 6044 c0 -11 3 -14 6 -6 3 7 2 16 -1 19 -3 4 -6 -2 -5 -13z"/>
<path d="M2492 6000 c0 -14 2 -19 5 -12 2 6 2 18 0 25 -3 6 -5 1 -5 -13z"/>
<path d="M5994 5730 c0 -151 2 -213 3 -137 2 75 2 199 0 275 -1 75 -3 13 -3
-138z"/>
<path d="M7262 5965 c0 -16 2 -22 5 -12 2 9 2 23 0 30 -3 6 -5 -1 -5 -18z"/>
<path d="M4383 5905 c0 -27 2 -38 4 -22 2 15 2 37 0 50 -2 12 -4 0 -4 -28z"/>
<path d="M2501 5924 c0 -11 3 -14 6 -6 3 7 2 16 -1 19 -3 4 -6 -2 -5 -13z"/>
<path d="M6153 5870 c0 -30 2 -43 4 -27 2 15 2 39 0 55 -2 15 -4 2 -4 -28z"/>
<path d="M7246 5884 c-4 -20 -5 -38 -3 -40 3 -3 8 11 11 32 4 20 5 38 3 40 -3
3 -8 -11 -11 -32z"/>
<path d="M7291 5854 c0 -11 3 -14 6 -6 3 7 2 16 -1 19 -3 4 -6 -2 -5 -13z"/>
<path d="M7262 5840 c0 -14 2 -19 5 -12 2 6 2 18 0 25 -3 6 -5 1 -5 -13z"/>
<path d="M5183 5795 c0 -33 2 -45 4 -27 2 18 2 45 0 60 -2 15 -4 0 -4 -33z"/>
<path d="M7231 5814 c0 -11 3 -14 6 -6 3 7 2 16 -1 19 -3 4 -6 -2 -5 -13z"/>
<path d="M7264 5774 c0 -30 2 -33 9 -16 5 12 5 26 0 36 -7 12 -9 7 -9 -20z"/>
<path d="M7221 5778 c0 -9 -4 -25 -7 -35 -5 -17 -5 -17 6 0 6 10 9 25 7 35 -4
15 -5 15 -6 0z"/>
<path d="M7240 5761 c-13 -25 -13 -44 0 -36 6 3 10 1 10 -4 0 -6 -7 -11 -15
-11 -17 0 -18 -15 -4 -45 8 -16 8 -15 4 8 -4 19 -2 26 5 22 11 -7 11 -7 14 48
3 42 1 45 -14 18z"/>
<path d="M3302 5740 c7 -10 14 -18 15 -16 6 6 -9 36 -18 36 -5 0 -4 -9 3 -20z"/>
<path d="M4384 5485 c0 -154 2 -216 3 -137 2 79 2 205 0 280 -1 75 -3 11 -3
-143z"/>
<path d="M5283 5723 c15 -2 37 -2 50 0 12 2 0 4 -28 4 -27 0 -38 -2 -22 -4z"/>
<path d="M7201 5704 c0 -11 3 -14 6 -6 3 7 2 16 -1 19 -3 4 -6 -2 -5 -13z"/>
<path d="M3321 5695 c1 -19 18 -51 18 -35 0 8 -4 22 -9 30 -5 8 -9 11 -9 5z"/>
<path d="M5218 5633 c12 -2 32 -2 45 0 12 2 2 4 -23 4 -25 0 -35 -2 -22 -4z"/>
<path d="M3426 5603 c-6 -14 -5 -15 5 -6 7 7 10 15 7 18 -3 3 -9 -2 -12 -12z"/>
<path d="M7184 5593 c-3 -10 -13 -36 -21 -58 -8 -23 -10 -35 -3 -29 12 12 42
104 34 104 -2 0 -7 -8 -10 -17z"/>
<path d="M5173 5000 c-2 -322 1 -591 5 -598 5 -7 24 -14 43 -16 19 -2 25 -1
14 1 -11 3 -23 8 -27 11 -4 4 -8 84 -9 179 -2 95 -6 170 -11 167 -4 -3 -9 185
-11 418 -2 378 -2 361 -4 -162z"/>
<path d="M3380 5535 c0 -5 5 -17 10 -25 5 -8 10 -10 10 -5 0 6 -5 17 -10 25
-5 8 -10 11 -10 5z"/>
<path d="M4543 5455 c0 -33 2 -45 4 -27 2 18 2 45 0 60 -2 15 -4 0 -4 -33z"/>
<path d="M3400 5485 c0 -5 5 -17 10 -25 5 -8 10 -10 10 -5 0 6 -5 17 -10 25
-5 8 -10 11 -10 5z"/>
<path d="M2935 5410 c-3 -5 -2 -10 4 -10 5 0 13 5 16 10 3 6 2 10 -4 10 -5 0
-13 -4 -16 -10z"/>
<path d="M5983 4975 c0 -236 2 -441 6 -455 7 -26 39 -40 50 -21 4 5 27 19 51
31 36 17 39 20 15 15 -44 -8 -75 23 -76 78 -1 23 -4 32 -6 19 -2 -12 -9 -20
-14 -16 -5 3 -6 10 -3 16 4 7 2 8 -4 4 -9 -5 -12 92 -15 376 l-2 383 -2 -430z"/>
<path d="M7126 5385 c-9 -26 -7 -32 5 -12 6 10 9 21 6 23 -2 3 -7 -2 -11 -11z"/>
<path d="M2945 5380 c-3 -5 -1 -10 4 -10 6 0 11 5 11 10 0 6 -2 10 -4 10 -3 0
-8 -4 -11 -10z"/>
<path d="M3461 5365 c0 -5 11 -30 24 -55 13 -25 24 -40 24 -35 0 6 -11 30 -24
55 -13 25 -24 41 -24 35z"/>
<path d="M2963 5341 c1 -11 5 -21 10 -21 4 0 5 -4 2 -10 -3 -5 -1 -10 5 -10 6
0 8 -4 5 -10 -3 -5 -1 -10 5 -10 6 0 8 -4 5 -10 -3 -5 -1 -10 5 -10 6 0 8 -5
4 -12 -5 -7 -3 -8 6 -3 10 6 12 4 7 -9 -5 -11 -3 -15 5 -10 8 5 9 2 5 -10 -5
-11 -3 -15 5 -10 8 5 9 1 4 -12 -5 -14 -4 -16 4 -8 12 12 -1 57 -19 69 -6 3
-11 21 -11 40 0 41 -9 67 -21 59 -5 -3 -7 -11 -3 -17 3 -7 -1 -4 -10 7 -14 18
-15 18 -13 -3z"/>
<path d="M7090 5310 c-6 -11 -8 -20 -6 -20 3 0 10 9 16 20 6 11 8 20 6 20 -3
0 -10 -9 -16 -20z"/>
<path d="M3537 5213 c9 -24 70 -112 99 -143 13 -14 33 -36 44 -49 11 -13 20
-21 20 -17 0 4 -24 37 -53 74 -30 37 -66 86 -80 110 -28 44 -41 55 -30 25z"/>
<path d="M3063 5193 c4 -3 -1 -12 -11 -20 -15 -13 -15 -13 6 -3 19 9 23 30 5
30 -4 0 -3 -3 0 -7z"/>
<path d="M3070 5160 c-13 -9 -13 -10 0 -10 13 0 13 -1 0 -10 -11 -7 -11 -10
-2 -10 7 0 10 -5 7 -10 -3 -6 1 -13 9 -16 9 -3 13 -10 10 -15 -3 -5 2 -6 11
-2 12 4 13 8 5 13 -7 4 -15 21 -18 38 -6 25 -10 29 -22 22z"/>
<path d="M6919 5123 c-13 -16 -12 -17 4 -4 16 13 21 21 13 21 -2 0 -10 -8 -17
-17z"/>
<path d="M2760 5110 c6 -11 13 -20 16 -20 2 0 0 9 -6 20 -6 11 -13 20 -16 20
-2 0 0 -9 6 -20z"/>
<path d="M6889 5083 c-13 -16 -12 -17 4 -4 9 7 17 15 17 17 0 8 -8 3 -21 -13z"/>
<path d="M6920 5058 c-19 -24 -26 -37 -17 -29 19 15 61 71 54 71 -2 0 -19 -19
-37 -42z"/>
<path d="M2805 5030 c9 -16 18 -30 21 -30 2 0 -2 14 -11 30 -9 17 -18 30 -21
30 -2 0 2 -13 11 -30z"/>
<path d="M3123 5045 c0 -8 4 -12 9 -9 5 3 6 10 3 15 -9 13 -12 11 -12 -6z"/>
<path d="M6839 5023 c-13 -16 -12 -17 4 -4 9 7 17 15 17 17 0 8 -8 3 -21 -13z"/>
<path d="M3143 5015 c0 -8 4 -12 9 -9 8 5 12 -11 8 -31 -1 -7 2 -6 9 0 13 13
3 55 -13 55 -7 0 -13 -7 -13 -15z"/>
<path d="M3750 5016 c0 -2 8 -10 18 -17 15 -13 16 -12 3 4 -13 16 -21 21 -21
13z"/>
<path d="M3190 4995 c-6 -35 -6 -53 1 -49 9 5 31 -31 23 -39 -3 -3 4 -10 15
-17 12 -6 18 -16 15 -22 -4 -7 -3 -8 5 -4 8 5 6 15 -9 36 -15 21 -17 30 -8 33
8 3 6 6 -4 6 -11 1 -21 14 -27 34 -5 17 -10 28 -11 22z"/>
<path d="M6855 4980 c-10 -11 -22 -17 -28 -13 -5 3 -7 1 -3 -5 3 -6 2 -13 -4
-17 -10 -6 -15 8 -10 30 1 6 -15 -6 -34 -24 -20 -19 -36 -37 -36 -40 0 -3 13
8 29 23 23 22 29 24 34 12 4 -9 1 -15 -6 -13 -7 1 -11 -5 -9 -14 1 -9 -5 -22
-13 -29 -12 -10 -15 -10 -15 0 0 10 -3 10 -14 1 -8 -7 -14 -21 -13 -31 1 -15
4 -16 14 -8 20 16 136 148 131 148 -3 0 -13 -9 -23 -20z m-95 -104 c0 -3 -4
-8 -10 -11 -5 -3 -10 -1 -10 4 0 6 5 11 10 11 6 0 10 -2 10 -4z"/>
<path d="M4552 4890 c0 -19 2 -27 5 -17 2 9 2 25 0 35 -3 9 -5 1 -5 -18z"/>
<path d="M3830 4865 c13 -14 27 -25 31 -25 5 0 -3 11 -17 25 -14 14 -28 25
-31 25 -4 0 4 -11 17 -25z"/>
<path d="M6684 4868 l-19 -23 23 19 c21 18 27 26 19 26 -2 0 -12 -10 -23 -22z"/>
<path d="M6163 4845 c0 -22 2 -30 4 -17 2 12 2 30 0 40 -3 9 -5 -1 -4 -23z"/>
<path d="M3264 4846 c1 -8 5 -18 8 -22 4 -3 5 1 4 10 -1 8 -5 18 -8 22 -4 3
-5 -1 -4 -10z"/>
<path d="M4372 4759 c-2 -131 3 -162 36 -194 14 -14 18 -23 10 -20 -9 4 -19 2
-23 -4 -4 -7 4 -11 19 -11 13 0 33 -3 43 -7 14 -5 12 1 -8 23 -20 21 -29 45
-34 89 -5 43 -10 54 -15 40 -9 -23 -18 30 -23 130 -2 33 -4 12 -5 -46z"/>
<path d="M6619 4813 c-13 -16 -12 -17 4 -4 9 7 17 15 17 17 0 8 -8 3 -21 -13z"/>
<path d="M3297 4809 c7 -9 10 -18 8 -21 -3 -3 10 -17 30 -32 19 -15 33 -32 30
-37 -4 -5 2 -12 12 -16 19 -7 40 -31 42 -48 2 -15 123 -135 131 -130 4 2 22
-11 40 -30 21 -22 38 -31 49 -27 13 5 14 3 4 -10 -17 -19 -4 -32 15 -15 11 8
14 8 9 0 -4 -6 1 -18 13 -26 11 -7 17 -17 12 -22 -4 -5 -1 -5 6 -1 16 10 54
-22 45 -37 -3 -6 -1 -7 6 -3 15 10 43 -13 34 -28 -3 -6 -3 -8 2 -4 11 10 47
-11 40 -23 -4 -5 -3 -9 2 -8 20 3 34 -2 28 -11 -4 -6 -3 -10 2 -9 21 4 34 -2
27 -13 -4 -7 -3 -8 4 -4 12 7 16 5 108 -48 57 -33 104 -40 87 -13 -3 6 -1 7 5
3 20 -12 61 5 64 27 2 13 12 23 23 25 11 2 25 9 30 16 9 11 135 51 195 61 43
8 110 29 110 35 0 4 26 5 58 4 31 -1 49 0 40 3 -10 2 -18 10 -18 17 0 16 -68
48 -83 40 -7 -4 -9 -3 -4 1 9 11 -49 38 -173 81 -52 18 -91 33 -86 33 9 1 -60
51 -70 51 -3 0 -2 -5 2 -12 4 -7 3 -8 -5 -4 -6 4 -9 11 -6 15 4 7 -59 61 -157
133 -20 15 -40 23 -43 18 -3 -4 3 -11 14 -15 11 -3 25 -13 32 -23 7 -9 10 -14
5 -10 -15 12 -66 -13 -66 -33 0 -10 -7 -19 -15 -19 -8 0 -15 -9 -15 -20 0 -17
-7 -20 -40 -20 -29 0 -40 -4 -40 -15 0 -8 -9 -15 -19 -15 -11 0 -21 -6 -23
-12 -4 -10 -17 -10 -64 0 -33 6 -70 12 -81 12 -11 0 -26 7 -33 15 -7 8 -36 29
-66 46 -29 16 -72 46 -95 65 -34 28 -44 32 -61 23 -11 -6 -22 -8 -25 -5 -3 3
2 8 11 12 22 9 20 27 -3 21 -11 -2 -24 3 -32 14 -7 11 -19 19 -27 19 -7 0 -11
4 -8 9 3 5 -2 15 -12 22 -15 12 -16 12 -5 -2z m767 -145 c9 -3 16 -11 16 -16
0 -7 -5 -6 -13 1 -8 6 -17 8 -20 4 -4 -3 -7 -1 -7 5 0 14 2 14 24 6z m-569
-74 c33 -33 57 -60 54 -60 -2 0 -31 27 -64 60 -33 33 -57 60 -54 60 2 0 31
-27 64 -60z"/>
<path d="M3909 4794 c17 -14 28 -31 24 -36 -4 -7 -1 -8 6 -3 9 5 5 15 -15 36
-15 16 -32 29 -37 29 -5 0 5 -12 22 -26z"/>
<path d="M3347 4789 c7 -7 15 -10 18 -7 3 3 -2 9 -12 12 -14 6 -15 5 -6 -5z"/>
<path d="M6639 4773 c-13 -16 -12 -17 4 -4 16 13 21 21 13 21 -2 0 -10 -8 -17
-17z"/>
<path d="M6559 4763 c-13 -16 -12 -17 4 -4 9 7 17 15 17 17 0 8 -8 3 -21 -13z"/>
<path d="M7569 4733 c-13 -16 -12 -17 4 -4 16 13 21 21 13 21 -2 0 -10 -8 -17
-17z"/>
<path d="M3130 4736 c0 -2 8 -10 18 -17 15 -13 16 -12 3 4 -13 16 -21 21 -21
13z"/>
<path d="M6504 4718 l-19 -23 23 19 c12 11 22 21 22 23 0 8 -8 2 -26 -19z"/>
<path d="M7289 4713 c-13 -16 -12 -17 4 -4 16 13 21 21 13 21 -2 0 -10 -8 -17
-17z"/>
<path d="M7409 4703 c-13 -16 -12 -17 4 -4 16 13 21 21 13 21 -2 0 -10 -8 -17
-17z"/>
<path d="M7170 4665 c-24 -25 -42 -45 -39 -45 3 0 25 20 49 45 24 25 42 45 39
45 -3 0 -25 -20 -49 -45z"/>
<path d="M7529 4683 c-13 -16 -12 -17 4 -4 9 7 17 15 17 17 0 8 -8 3 -21 -13z"/>
<path d="M3036 4681 c-4 -5 -2 -12 4 -16 5 -3 10 -3 10 1 0 3 7 1 15 -6 18
-15 20 -34 3 -24 -7 5 5 -13 26 -39 21 -26 42 -45 46 -42 4 3 11 -2 14 -11 4
-10 2 -13 -7 -8 -6 4 1 -7 17 -24 30 -32 49 -45 27 -18 -10 12 -8 13 8 9 12
-3 21 -11 21 -19 0 -19 17 -26 37 -15 16 8 15 11 -8 21 -13 6 -33 23 -43 38
-10 15 -32 38 -48 51 -25 20 -32 22 -39 10 -6 -10 -8 -7 -5 11 3 24 -8 38 -56
78 -10 8 -19 9 -22 3z"/>
<path d="M6519 4673 c-13 -16 -12 -17 4 -4 9 7 17 15 17 17 0 8 -8 3 -21 -13z"/>
<path d="M7234 4648 l-19 -23 23 19 c12 11 22 21 22 23 0 8 -8 2 -26 -19z"/>
<path d="M7369 4653 c-13 -16 -12 -17 4 -4 16 13 21 21 13 21 -2 0 -10 -8 -17
-17z"/>
<path d="M7479 4613 c-13 -16 -12 -17 4 -4 16 13 21 21 13 21 -2 0 -10 -8 -17
-17z"/>
<path d="M7329 4603 c-13 -16 -12 -17 4 -4 9 7 17 15 17 17 0 8 -8 3 -21 -13z"/>
<path d="M7449 4573 c-13 -16 -12 -17 4 -4 16 13 21 21 13 21 -2 0 -10 -8 -17
-17z"/>
<path d="M7149 4553 l-24 -28 28 24 c15 14 27 26 27 28 0 8 -8 1 -31 -24z"/>
<path d="M7220 4483 l-85 -88 88 85 c81 79 92 90 84 90 -1 0 -41 -39 -87 -87z"/>
<path d="M7409 4523 c-13 -16 -12 -17 4 -4 16 13 21 21 13 21 -2 0 -10 -8 -17
-17z"/>
<path d="M4595 4493 c7 -30 16 -39 57 -55 16 -5 25 -14 22 -19 -3 -5 1 -6 9
-3 8 3 41 -1 73 -10 33 -8 92 -14 132 -14 60 0 73 2 70 15 -2 9 -29 23 -68 35
-36 10 -74 23 -85 27 -28 12 -132 39 -179 46 -38 6 -38 6 -31 -22z"/>
<path d="M7004 4498 l-19 -23 23 19 c12 11 22 21 22 23 0 8 -8 2 -26 -19z"/>
<path d="M4552 4485 c0 -16 2 -22 5 -12 2 9 2 23 0 30 -3 6 -5 -1 -5 -18z"/>
<path d="M5392 4480 c0 -14 2 -19 5 -12 2 6 2 18 0 25 -3 6 -5 1 -5 -13z"/>
<path d="M7265 4368 l-110 -113 113 110 c104 102 117 115 109 115 -1 0 -52
-51 -112 -112z"/>
<path d="M3250 4451 c0 -5 7 -11 15 -15 8 -3 15 -1 15 3 0 5 -7 11 -15 15 -8
3 -15 1 -15 -3z"/>
<path d="M7009 4423 c-13 -16 -12 -17 4 -4 16 13 21 21 13 21 -2 0 -10 -8 -17
-17z"/>
<path d="M5396 4400 c-18 -18 -18 -19 14 -15 40 5 49 13 30 25 -20 13 -22 12
-44 -10z"/>
<path d="M3320 4372 c11 -21 41 -58 67 -82 26 -25 37 -33 24 -17 -14 15 -20
27 -15 27 10 -1 52 -37 74 -65 13 -17 13 -18 0 -10 -37 22 16 -28 79 -73 87
-64 148 -70 84 -9 -16 14 -38 40 -51 57 -13 16 -32 30 -42 30 -9 0 -23 7 -30
15 -7 8 -19 15 -27 15 -8 0 -11 5 -8 10 3 6 2 10 -3 10 -13 0 -82 66 -82 78 0
5 -8 9 -17 8 -11 0 -17 6 -17 17 1 9 -1 17 -5 18 -3 0 -16 2 -28 5 l-23 4 20
-38z m50 -38 c0 -7 6 -14 13 -17 6 -2 9 -7 6 -11 -3 -3 -15 5 -27 17 -17 18
-19 24 -7 24 8 0 15 -6 15 -13z"/>
<path d="M3455 4380 c10 -11 20 -20 23 -20 3 0 -3 9 -13 20 -10 11 -20 20 -23
20 -3 0 3 -9 13 -20z"/>
<path d="M7079 4353 l-34 -38 38 34 c34 33 42 41 34 41 -2 0 -19 -17 -38 -37z"/>
<path d="M5900 4370 c-8 -5 -10 -10 -5 -10 6 0 17 5 25 10 8 5 11 10 5 10 -5
0 -17 -5 -25 -10z"/>
<path d="M5468 4323 c7 -3 16 -2 19 1 4 3 -2 6 -13 5 -11 0 -14 -3 -6 -6z"/>
<path d="M4878 4313 c7 -3 16 -2 19 1 4 3 -2 6 -13 5 -11 0 -14 -3 -6 -6z"/>
<path d="M5618 4303 c7 -3 16 -2 19 1 4 3 -2 6 -13 5 -11 0 -14 -3 -6 -6z"/>
<path d="M7004 4288 l-19 -23 23 19 c21 18 27 26 19 26 -2 0 -12 -10 -23 -22z"/>
<path d="M4988 4293 c7 -3 16 -2 19 1 4 3 -2 6 -13 5 -11 0 -14 -3 -6 -6z"/>
<path d="M5548 4293 c7 -3 16 -2 19 1 4 3 -2 6 -13 5 -11 0 -14 -3 -6 -6z"/>
<path d="M5063 4283 c9 -2 23 -2 30 0 6 3 -1 5 -18 5 -16 0 -22 -2 -12 -5z"/>
<path d="M5188 4273 c12 -2 30 -2 40 0 9 3 -1 5 -23 4 -22 0 -30 -2 -17 -4z"/>
<path d="M5318 4273 c12 -2 32 -2 45 0 12 2 2 4 -23 4 -25 0 -35 -2 -22 -4z"/>
<path d="M7074 4188 l-29 -33 33 29 c17 17 32 31 32 33 0 8 -8 1 -36 -29z"/>
<path d="M4075 4160 c3 -5 8 -10 11 -10 2 0 4 5 4 10 0 6 -5 10 -11 10 -5 0
-7 -4 -4 -10z"/>
<path d="M4100 4150 c0 -6 7 -10 15 -10 8 0 15 2 15 4 0 2 -7 6 -15 10 -8 3
-15 1 -15 -4z"/>
<path d="M7009 4133 c-13 -16 -12 -17 4 -4 16 13 21 21 13 21 -2 0 -10 -8 -17
-17z"/>
<path d="M4140 4135 c0 -7 61 -37 66 -33 2 3 -12 12 -31 21 -19 9 -35 15 -35
12z"/>
<path d="M6969 4103 c-13 -16 -12 -17 4 -4 16 13 21 21 13 21 -2 0 -10 -8 -17
-17z"/>
<path d="M3630 4096 c0 -2 8 -10 18 -17 15 -13 16 -12 3 4 -13 16 -21 21 -21
13z"/>
<path d="M3700 4070 c0 -5 5 -10 11 -10 6 0 8 -7 5 -17 -4 -10 -4 -14 0 -10 4
4 13 -1 21 -11 10 -11 12 -12 8 -2 -4 8 3 4 15 -10 12 -14 18 -18 14 -10 -4 8
4 3 19 -12 14 -16 30 -28 34 -28 4 0 -1 8 -12 16 -19 15 -19 15 7 9 15 -4 35
-2 45 4 16 9 16 10 -5 11 -13 0 -20 4 -17 10 3 6 0 10 -7 10 -7 0 -40 14 -72
30 -66 34 -66 34 -66 20z"/>
<path d="M6728 3953 c-26 -15 -46 -28 -44 -30 4 -4 76 34 91 48 14 14 4 10
-47 -18z"/>
<path d="M3840 3955 c0 -2 15 -12 33 -20 l32 -16 -25 20 c-24 20 -40 26 -40
16z"/>
<path d="M2403 3923 c32 -2 81 -2 110 0 29 2 3 3 -58 3 -60 0 -84 -1 -52 -3z"/>
<path d="M3013 3923 c9 -2 23 -2 30 0 6 3 -1 5 -18 5 -16 0 -22 -2 -12 -5z"/>
<path d="M3098 3923 c7 -3 16 -2 19 1 4 3 -2 6 -13 5 -11 0 -14 -3 -6 -6z"/>
<path d="M3348 3923 c12 -2 30 -2 40 0 9 3 -1 5 -23 4 -22 0 -30 -2 -17 -4z"/>
<path d="M3930 3921 c-22 -6 -23 -8 -7 -14 11 -4 24 -4 29 0 6 3 8 2 5 -4 -3
-5 14 -19 38 -31 25 -12 45 -18 45 -13 0 10 44 0 77 -18 11 -5 23 -7 27 -4 7
7 -128 78 -164 85 -14 3 -36 2 -50 -1z"/>
<path d="M7148 3923 c6 -2 18 -2 25 0 6 3 1 5 -13 5 -14 0 -19 -2 -12 -5z"/>
<path d="M7823 3923 c37 -2 97 -2 135 0 37 2 6 3 -68 3 -74 0 -105 -1 -67 -3z"/>
<path d="M8203 3923 c20 -2 54 -2 75 0 20 2 3 4 -38 4 -41 0 -58 -2 -37 -4z"/>
<path d="M6600 3887 c-36 -18 -109 -52 -162 -76 -54 -25 -96 -47 -94 -49 6 -5
315 139 322 150 7 11 9 11 -66 -25z"/>
<path d="M3388 3873 c6 -2 18 -2 25 0 6 3 1 5 -13 5 -14 0 -19 -2 -12 -5z"/>
<path d="M2293 3863 c59 -2 155 -2 215 0 59 1 10 3 -108 3 -118 0 -167 -2
-107 -3z"/>
<path d="M3128 3863 c28 -2 76 -2 105 0 28 2 5 3 -53 3 -58 0 -81 -1 -52 -3z"/>
<path d="M7158 3863 c12 -2 30 -2 40 0 9 3 -1 5 -23 4 -22 0 -30 -2 -17 -4z"/>
<path d="M7933 3863 c75 -2 199 -2 275 0 75 1 13 3 -138 3 -151 0 -213 -2
-137 -3z"/>
<path d="M4060 3841 c36 -21 212 -92 217 -88 2 3 -5 8 -16 12 -12 3 -21 10
-21 15 0 5 -7 6 -17 3 -9 -4 -14 -2 -11 3 3 5 -8 19 -23 32 -16 13 -29 19 -29
12 0 -6 7 -13 15 -16 8 -4 15 -10 15 -14 0 -5 -29 4 -65 21 -61 27 -98 39 -65
20z"/>
<path d="M5428 3843 c6 -2 18 -2 25 0 6 3 1 5 -13 5 -14 0 -19 -2 -12 -5z"/>
<path d="M5648 3803 c7 -3 16 -2 19 1 4 3 -2 6 -13 5 -11 0 -14 -3 -6 -6z"/>
<path d="M5028 3793 c7 -3 16 -2 19 1 4 3 -2 6 -13 5 -11 0 -14 -3 -6 -6z"/>
<path d="M5538 3793 c7 -3 16 -2 19 1 4 3 -2 6 -13 5 -11 0 -14 -3 -6 -6z"/>
<path d="M4302 3751 c-21 -13 13 -22 40 -11 13 5 18 9 11 9 -6 1 -17 3 -25 6
-7 3 -19 1 -26 -4z"/>
<path d="M6275 3741 c-22 -11 -35 -19 -30 -19 14 -1 93 36 80 37 -5 0 -28 -8
-50 -18z"/>
<path d="M3128 3733 c68 -2 176 -2 240 0 64 1 9 3 -123 3 -132 0 -185 -2 -117
-3z"/>
<path d="M6878 3733 c7 -3 16 -2 19 1 4 3 -2 6 -13 5 -11 0 -14 -3 -6 -6z"/>
<path d="M5528 3693 c7 -3 16 -2 19 1 4 3 -2 6 -13 5 -11 0 -14 -3 -6 -6z"/>
<path d="M6125 3690 c-13 -5 -14 -9 -5 -9 8 0 24 4 35 9 13 5 14 9 5 9 -8 0
-24 -4 -35 -9z"/>
<path d="M5173 3683 c9 -2 23 -2 30 0 6 3 -1 5 -18 5 -16 0 -22 -2 -12 -5z"/>
<path d="M5423 3683 c9 -2 23 -2 30 0 6 3 -1 5 -18 5 -16 0 -22 -2 -12 -5z"/>
<path d="M6893 3683 c20 -2 54 -2 75 0 20 2 3 4 -38 4 -41 0 -58 -2 -37 -4z"/>
<path d="M2442 3673 c37 -2 100 -2 140 0 40 1 10 3 -67 3 -77 0 -110 -1 -73
-3z"/>
<path d="M3118 3673 c45 -2 119 -2 165 0 45 1 8 3 -83 3 -91 0 -128 -2 -82 -3z"/>
<path d="M6078 3673 c7 -3 16 -2 19 1 4 3 -2 6 -13 5 -11 0 -14 -3 -6 -6z"/>
<path d="M7948 3673 c23 -2 59 -2 80 0 20 2 1 4 -43 4 -44 0 -61 -2 -37 -4z"/>
<path d="M5985 3650 c-13 -5 -14 -9 -5 -9 8 0 24 4 35 9 13 5 14 9 5 9 -8 0
-24 -4 -35 -9z"/>
<path d="M5910 3630 c-20 -6 -21 -8 -5 -8 11 0 29 3 40 8 25 11 -1 11 -35 0z"/>
<path d="M4778 3613 c7 -3 16 -2 19 1 4 3 -2 6 -13 5 -11 0 -14 -3 -6 -6z"/>
<path d="M5800 3610 c-34 -7 -34 -7 -5 -8 17 0 44 4 60 8 27 7 27 8 5 8 -14
-1 -41 -4 -60 -8z"/>
<path d="M5696 3591 c-3 -4 6 -6 19 -3 14 2 25 6 25 8 0 8 -39 4 -44 -5z"/>
<path d="M4958 3583 c7 -3 16 -2 19 1 4 3 -2 6 -13 5 -11 0 -14 -3 -6 -6z"/>
<path d="M5558 3578 c5 -5 16 -8 23 -6 8 3 3 7 -10 11 -17 4 -21 3 -13 -5z"/>
<path d="M5028 3573 c7 -3 16 -2 19 1 4 3 -2 6 -13 5 -11 0 -14 -3 -6 -6z"/>
<path d="M5218 3563 c57 -2 147 -2 200 0 53 1 7 3 -103 3 -110 0 -154 -2 -97
-3z"/>
<path d="M4123 3253 c26 -2 68 -2 95 0 26 2 4 3 -48 3 -52 0 -74 -1 -47 -3z"/>
<path d="M5543 3253 c15 -2 39 -2 55 0 15 2 2 4 -28 4 -30 0 -43 -2 -27 -4z"/>
<path d="M6452 3253 c37 -2 100 -2 140 0 40 1 10 3 -67 3 -77 0 -110 -1 -73
-3z"/>
<path d="M7193 3253 c9 -2 23 -2 30 0 6 3 -1 5 -18 5 -16 0 -22 -2 -12 -5z"/>
<path d="M7443 3253 c15 -2 37 -2 50 0 12 2 0 4 -28 4 -27 0 -38 -2 -22 -4z"/>
<path d="M8043 3253 c26 -2 67 -2 90 0 23 2 2 3 -48 3 -49 0 -68 -1 -42 -3z"/>
<path d="M8188 3253 c6 -2 18 -2 25 0 6 3 1 5 -13 5 -14 0 -19 -2 -12 -5z"/>
<path d="M8253 3253 c9 -2 23 -2 30 0 6 3 -1 5 -18 5 -16 0 -22 -2 -12 -5z"/>
<path d="M4382 3120 c0 -19 2 -27 5 -17 2 9 2 25 0 35 -3 9 -5 1 -5 -18z"/>
<path d="M7462 3065 c0 -16 2 -22 5 -12 2 9 2 23 0 30 -3 6 -5 -1 -5 -18z"/>
<path d="M3473 2965 c0 -27 2 -38 4 -22 2 15 2 37 0 50 -2 12 -4 0 -4 -28z"/>
<path d="M4194 2925 c0 -49 1 -71 3 -48 2 23 2 64 0 90 -2 26 -3 8 -3 -42z"/>
<path d="M7464 2850 c0 -85 2 -120 3 -77 2 42 2 112 0 155 -1 42 -3 7 -3 -78z"/>
<path d="M2264 2870 c0 -52 1 -74 3 -47 2 26 2 68 0 95 -2 26 -3 4 -3 -48z"/>
<path d="M8232 2940 c0 -14 2 -19 5 -12 2 6 2 18 0 25 -3 6 -5 1 -5 -13z"/>
<path d="M3272 2860 c0 -14 2 -19 5 -12 2 6 2 18 0 25 -3 6 -5 1 -5 -13z"/>
<path d="M5632 2815 c0 -16 2 -22 5 -12 2 9 2 23 0 30 -3 6 -5 -1 -5 -18z"/>
<path d="M6623 2795 c0 -22 2 -30 4 -17 2 12 2 30 0 40 -3 9 -5 -1 -4 -23z"/>
<path d="M4193 2695 c0 -38 2 -53 4 -32 2 20 2 52 0 70 -2 17 -4 1 -4 -38z"/>
<path d="M4383 2715 c0 -22 2 -30 4 -17 2 12 2 30 0 40 -3 9 -5 -1 -4 -23z"/>
<path d="M5633 2705 c0 -27 2 -38 4 -22 2 15 2 37 0 50 -2 12 -4 0 -4 -28z"/>
<path d="M2264 2480 c0 -124 2 -174 3 -112 2 61 2 163 0 225 -1 61 -3 11 -3
-113z"/>
<path d="M5970 2656 c0 -2 8 -10 18 -17 15 -13 16 -12 3 4 -13 16 -21 21 -21
13z"/>
<path d="M4763 2590 c0 -30 2 -43 4 -27 2 15 2 39 0 55 -2 15 -4 2 -4 -28z"/>
<path d="M7262 2595 c0 -16 2 -22 5 -12 2 9 2 23 0 30 -3 6 -5 -1 -5 -18z"/>
<path d="M4433 2583 c26 -2 67 -2 90 0 23 2 2 3 -48 3 -49 0 -68 -1 -42 -3z"/>
<path d="M7464 2490 c0 -52 1 -74 3 -47 2 26 2 68 0 95 -2 26 -3 4 -3 -48z"/>
<path d="M4382 2535 c0 -16 2 -22 5 -12 2 9 2 23 0 30 -3 6 -5 -1 -5 -18z"/>
<path d="M5724 2465 c0 -55 1 -76 3 -47 2 29 2 74 0 100 -2 26 -3 2 -3 -53z"/>
<path d="M6070 2546 c0 -2 8 -10 18 -17 15 -13 16 -12 3 4 -13 16 -21 21 -21
13z"/>
<path d="M2363 2465 c0 -27 2 -38 4 -22 2 15 2 37 0 50 -2 12 -4 0 -4 -28z"/>
<path d="M3026 2465 c-9 -26 -7 -32 5 -12 6 10 9 21 6 23 -2 3 -7 -2 -11 -11z"/>
<path d="M3474 2390 c0 -52 1 -74 3 -47 2 26 2 68 0 95 -2 26 -3 4 -3 -48z"/>
<path d="M4772 2430 c0 -14 2 -19 5 -12 2 6 2 18 0 25 -3 6 -5 1 -5 -13z"/>
<path d="M4383 2380 c0 -36 2 -50 4 -32 2 17 2 47 0 65 -2 17 -4 3 -4 -33z"/>
<path d="M8221 2344 c0 -11 3 -14 6 -6 3 7 2 16 -1 19 -3 4 -6 -2 -5 -13z"/>
<path d="M4192 2260 c0 -14 2 -19 5 -12 2 6 2 18 0 25 -3 6 -5 1 -5 -13z"/>
<path d="M4383 2245 c0 -22 2 -30 4 -17 2 12 2 30 0 40 -3 9 -5 -1 -4 -23z"/>
<path d="M6612 2250 c0 -14 2 -19 5 -12 2 6 2 18 0 25 -3 6 -5 1 -5 -13z"/>
<path d="M5632 2240 c0 -14 2 -19 5 -12 2 6 2 18 0 25 -3 6 -5 1 -5 -13z"/>
<path d="M5061 2224 c0 -11 3 -14 6 -6 3 7 2 16 -1 19 -3 4 -6 -2 -5 -13z"/>
<path d="M2371 2184 c0 -11 3 -14 6 -6 3 7 2 16 -1 19 -3 4 -6 -2 -5 -13z"/>
<path d="M8039 2173 c-13 -16 -12 -17 4 -4 16 13 21 21 13 21 -2 0 -10 -8 -17
-17z"/>
<path d="M5051 2144 c0 -11 3 -14 6 -6 3 7 2 16 -1 19 -3 4 -6 -2 -5 -13z"/>
<path d="M6415 2140 c10 -11 20 -20 23 -20 3 0 -3 9 -13 20 -10 11 -20 20 -23
20 -3 0 3 -9 13 -20z"/>
<path d="M4154 2128 l-19 -23 23 19 c12 11 22 21 22 23 0 8 -8 2 -26 -19z"/>
<path d="M3224 2108 l-19 -23 23 19 c12 11 22 21 22 23 0 8 -8 2 -26 -19z"/>
<path d="M8094 2098 l-29 -33 33 29 c17 17 32 31 32 33 0 8 -8 1 -36 -29z"/>
<path d="M7390 2096 c0 -2 8 -10 18 -17 15 -13 16 -12 3 4 -13 16 -21 21 -21
13z"/>
<path d="M5041 2054 c0 -11 3 -14 6 -6 3 7 2 16 -1 19 -3 4 -6 -2 -5 -13z"/>
<path d="M2081 2024 c0 -11 3 -14 6 -6 3 7 2 16 -1 19 -3 4 -6 -2 -5 -13z"/>
<path d="M4022 2020 c0 -14 2 -19 5 -12 2 6 2 18 0 25 -3 6 -5 1 -5 -13z"/>
<path d="M4393 1993 c20 -2 54 -2 75 0 20 2 3 4 -38 4 -41 0 -58 -2 -37 -4z"/>
<path d="M5588 1993 c17 -2 47 -2 65 0 17 2 3 4 -33 4 -36 0 -50 -2 -32 -4z"/>
<path d="M3623 1983 c9 -2 23 -2 30 0 6 3 -1 5 -18 5 -16 0 -22 -2 -12 -5z"/>
<path d="M7743 1963 c9 -2 25 -2 35 0 9 3 1 5 -18 5 -19 0 -27 -2 -17 -5z"/>
<path d="M6618 1573 c7 -3 16 -2 19 1 4 3 -2 6 -13 5 -11 0 -14 -3 -6 -6z"/>
<path d="M5541 1554 c0 -11 3 -14 6 -6 3 7 2 16 -1 19 -3 4 -6 -2 -5 -13z"/>
<path d="M5613 1535 c0 -22 2 -30 4 -17 2 12 2 30 0 40 -3 9 -5 -1 -4 -23z"/>
<path d="M3960 1546 c0 -2 8 -10 18 -17 15 -13 16 -12 3 4 -13 16 -21 21 -21
13z"/>
<path d="M5042 1505 c0 -16 2 -22 5 -12 2 9 2 23 0 30 -3 6 -5 -1 -5 -18z"/>
<path d="M5922 1480 c0 -14 2 -19 5 -12 2 6 2 18 0 25 -3 6 -5 1 -5 -13z"/>
<path d="M2243 1443 c37 -2 97 -2 135 0 37 2 6 3 -68 3 -74 0 -105 -1 -67 -3z"/>
<path d="M2493 1443 c26 -2 68 -2 95 0 26 2 4 3 -48 3 -52 0 -74 -1 -47 -3z"/>
<path d="M5613 1365 c0 -38 2 -53 4 -32 2 20 2 52 0 70 -2 17 -4 1 -4 -38z"/>
<path d="M3193 1393 c15 -2 37 -2 50 0 12 2 0 4 -28 4 -27 0 -38 -2 -22 -4z"/>
<path d="M6020 1396 c0 -2 8 -10 18 -17 15 -13 16 -12 3 4 -13 16 -21 21 -21
13z"/>
<path d="M6251 1384 c0 -11 3 -14 6 -6 3 7 2 16 -1 19 -3 4 -6 -2 -5 -13z"/>
<path d="M7193 1393 c9 -2 23 -2 30 0 6 3 -1 5 -18 5 -16 0 -22 -2 -12 -5z"/>
<path d="M2833 1383 c20 -2 54 -2 75 0 20 2 3 4 -38 4 -41 0 -58 -2 -37 -4z"/>
<path d="M7673 1383 c119 -2 315 -2 435 0 119 1 21 2 -218 2 -239 0 -337 -1
-217 -2z"/>
<path d="M3691 1364 c0 -11 3 -14 6 -6 3 7 2 16 -1 19 -3 4 -6 -2 -5 -13z"/>
<path d="M5923 1315 c0 -33 2 -45 4 -27 2 18 2 45 0 60 -2 15 -4 0 -4 -33z"/>
<path d="M4051 1334 c0 -11 3 -14 6 -6 3 7 2 16 -1 19 -3 4 -6 -2 -5 -13z"/>
<path d="M6593 1315 c0 -22 2 -30 4 -17 2 12 2 30 0 40 -3 9 -5 -1 -4 -23z"/>
<path d="M6662 1310 c0 -14 2 -19 5 -12 2 6 2 18 0 25 -3 6 -5 1 -5 -13z"/>
<path d="M5218 1223 c6 -2 18 -2 25 0 6 3 1 5 -13 5 -14 0 -19 -2 -12 -5z"/>
<path d="M6872 1175 c0 -16 2 -22 5 -12 2 9 2 23 0 30 -3 6 -5 -1 -5 -18z"/>
<path d="M5541 1164 c0 -11 3 -14 6 -6 3 7 2 16 -1 19 -3 4 -6 -2 -5 -13z"/>
<path d="M5123 1143 c26 -2 68 -2 95 0 26 2 4 3 -48 3 -52 0 -74 -1 -47 -3z"/>
<path d="M6628 1143 c17 -2 47 -2 65 0 17 2 3 4 -33 4 -36 0 -50 -2 -32 -4z"/>
</g>
</svg>
